<?xml version="1.0" encoding="UTF-8" standalone="no"?>
<!DOCTYPE svg PUBLIC "-//W3C//DTD SVG 1.1//EN" "http://www.w3.org/Graphics/SVG/1.1/DTD/svg11.dtd">
<svg width="100%" height="100%" viewBox="0 0 2600 2600" version="1.1" xmlns="http://www.w3.org/2000/svg" xmlns:xlink="http://www.w3.org/1999/xlink" xml:space="preserve" xmlns:serif="http://www.serif.com/" style="fill-rule:evenodd;clip-rule:evenodd;stroke-miterlimit:10;">
    <g transform="matrix(9.26955,0,0,9.26955,421.775,31.9886)">
        <g id="Capa-1" serif:id="Capa 1">
            <g>
                <g transform="matrix(1,0,0,1,72.5239,251.233)">
                    <path d="M0,-38.688L-62.98,-13.367L-51.046,0L0,-38.688Z" style="fill:rgb(15,71,187);"/>
                </g>
                <g transform="matrix(1,0,0,1,112.473,245.024)">
                    <path d="M0,-21.721L0.165,10.696L-11.354,-1.973L-27.81,-25.012L-11.683,-10.696L-25.506,-29.455L-6.089,-12.013L-19.089,-30.771L-2.14,-15.961L-13.987,-32.417L0,-21.721Z" style="fill:rgb(6,34,79);"/>
                </g>
                <g transform="matrix(1,0,0,1,114.246,186.675)">
                    <path d="M0,66.151L-1.109,0L-25.709,15.838L-21.077,34.332L-20.86,34.66L-7.861,46.337L-20.861,27.578L-3.912,42.388L-15.76,25.932L-1.772,36.628L-1.635,63.681L0,66.151Z" style="fill:rgb(49,96,173);"/>
                </g>
                <g transform="matrix(1,0,0,1,90.269,202.397)">
                    <path d="M0,17.653L10.521,31.931L5.471,27.448L0.573,20.054L0,17.653ZM21.197,20.135L20.705,-14.278L-3.895,1.314L-0.459,15.726L16.115,30.614L3.115,11.856L20.064,26.665L8.217,10.21L21.197,20.135Z" style="fill:rgb(15,71,187);"/>
                </g>
                <g transform="matrix(1,0,0,1,73.8901,254.322)">
                    <path d="M0,-43.113L-52,-3.62L-49.038,0L0,-43.113Z" style="fill:rgb(6,34,79);"/>
                </g>
                <g transform="matrix(1,0,0,1,71.4096,267.948)">
                    <path d="M0,-54.559L-46.557,-13.627L-49.41,-17.112L-58.575,-10.165L-39.157,2.999L3.955,-57.558L0,-54.559Z" style="fill:rgb(148,168,204);fill-rule:nonzero;"/>
                </g>
                <g transform="matrix(0.203939,0.978984,0.978984,-0.203939,94.7042,173.607)">
                    <path d="M12.425,-14.293L28.562,-14.293L17.256,15.347L1.977,17.858L12.425,-14.293Z" style="fill:rgb(7,29,73);"/>
                </g>
                <g transform="matrix(1,0,0,1,84.4013,149.8)">
                    <path d="M0,38.225L24.704,-14.786L45.026,27.134L22.73,17.468L10.379,32.289L0,38.225ZM-6.891,53.011L-0.895,40.143L0.052,44.681L-6.891,53.011Z" style="fill:rgb(7,29,73);"/>
                </g>
                <g transform="matrix(1,0,0,1,60.5565,168.233)">
                    <path d="M0,-13.96L-60.557,-6.062L31.973,2.351L36.525,-7.42L40.669,-16.311L0,-13.96Z" style="fill:rgb(15,71,187);fill-rule:nonzero;"/>
                </g>
                <g transform="matrix(1,0,0,1,59.8232,201.998)">
                    <path d="M0,-34.882L-54.138,-41.726L34.369,-31.813L25.878,-14.546L24.943,-12.646L20.361,-3.323L11.966,6.844L-43.517,-0.238L19.494,-6.824L-46.841,-14.463L18.48,-21.33L-56.417,-28.818L0,-34.882Z" style="fill:rgb(7,29,73);"/>
                </g>
                <g transform="matrix(1,0,0,1,94.7802,143.078)">
                    <path d="M0,39.01L12.351,24.19L34.331,33.719L18.444,43.739L17.809,28.823L0,39.01ZM-17.208,59.659L-21.554,68.954L-8.398,60.667L-10.327,51.403L-17.208,59.659ZM-10.312,44.909L-11.26,46.935L-11.274,46.865L-10.379,44.947L-10.312,44.909ZM34.559,33.574L24.686,-29.944L14.392,-7.926L34.522,33.598L34.559,33.574Z" style="fill:rgb(148,168,204);"/>
                </g>
                <g transform="matrix(1,0,0,1,28.7309,131.471)">
                    <path d="M0,-74.087L-20.349,-98.306L-13.428,-8.46L29.437,22.631L34.435,24.219L58.318,20.992L41.862,12.435L-8.544,-51.964L0,-74.087Z" style="fill:rgb(15,71,187);"/>
                </g>
                <g transform="matrix(1,0,0,1,103.775,77.1434)">
                    <path d="M0,69.309L-74.938,-19.465L-83.588,2.363L-33.182,66.763L-16.726,75.319L-41.08,78.611L-9.071,88.774L-5.203,80.475L0,69.309Z" style="fill:rgb(9,11,140);"/>
                </g>
                <g transform="matrix(1,0,0,1,105.133,73.9471)">
                    <path d="M0,69.309L-74.937,-19.465L-83.588,2.363L-33.182,66.763L-16.725,75.319L-41.08,78.611L-9.071,88.774L-5.203,80.475L0,69.309Z" style="fill:rgb(9,11,140);"/>
                </g>
                <g transform="matrix(1,0,0,1,48.7881,147.953)">
                    <path d="M0,-147.954L-20.956,-89.234L-20.756,-88.979L54.915,0L60.317,-11.591L60.385,-11.454L61.096,-12.977L0,-147.954Z" style="fill:rgb(15,71,187);fill-rule:nonzero;"/>
                </g>
                <g transform="matrix(1,0,0,1,153.542,117.783)">
                    <path d="M0,12.751L1.749,11.064L15.617,15.417L0,12.751ZM-13.342,25.628L-5.389,17.953L-2.811,22.338L17.149,15.898L20.885,17.071L8.292,4.749L14.961,-1.687L4.521,1.06L-9.721,-12.877L-35.722,-0.701L-14.32,6.018L-41.316,13.122L-13.342,25.628Z" style="fill:rgb(7,29,73);"/>
                </g>
                <g transform="matrix(1,0,0,1,121.563,186.803)">
                    <path d="M0,13.562C-0.701,13.562 -1.346,13.418 -1.935,13.131C-2.523,12.844 -3.031,12.416 -3.459,11.848C-3.887,11.28 -4.218,10.571 -4.453,9.721C-4.688,8.872 -4.807,7.896 -4.807,6.794C-4.807,5.699 -4.692,4.744 -4.464,3.929C-4.236,3.115 -3.903,2.406 -3.466,1.802C-3.038,1.216 -2.531,0.77 -1.945,0.462C-1.359,0.154 -0.703,0 0.022,0C0.383,0 0.72,0.033 1.034,0.097C1.35,0.162 1.642,0.244 1.91,0.343C2.141,0.431 2.378,0.541 2.62,0.673C2.862,0.805 3.102,0.95 3.337,1.108L3.337,3.208L3.222,3.208C3.097,3.068 2.937,2.898 2.739,2.699C2.542,2.499 2.302,2.303 2.019,2.11C1.744,1.928 1.446,1.779 1.125,1.662C0.803,1.544 0.431,1.486 0.008,1.486C-0.449,1.486 -0.881,1.6 -1.29,1.829C-1.698,2.057 -2.056,2.394 -2.363,2.839C-2.666,3.285 -2.901,3.844 -3.069,4.518C-3.238,5.192 -3.322,5.951 -3.322,6.794C-3.322,7.691 -3.233,8.463 -3.056,9.11C-2.878,9.758 -2.635,10.304 -2.327,10.749C-2.029,11.183 -1.679,11.51 -1.275,11.729C-0.871,11.949 -0.444,12.059 0.008,12.059C0.421,12.059 0.803,11.998 1.153,11.875C1.504,11.751 1.816,11.596 2.091,11.409C2.354,11.227 2.583,11.041 2.775,10.851C2.967,10.66 3.118,10.498 3.229,10.363L3.337,10.363L3.337,12.437C3.102,12.572 2.88,12.701 2.671,12.824C2.462,12.947 2.208,13.067 1.91,13.184C1.598,13.307 1.309,13.401 1.042,13.465C0.775,13.53 0.428,13.562 0,13.562" style="fill:rgb(7,29,73);fill-rule:nonzero;"/>
                </g>
                <g transform="matrix(1,0,0,1,121.563,186.803)">
                    <path d="M0,13.562C-0.701,13.562 -1.346,13.418 -1.935,13.131C-2.523,12.844 -3.031,12.416 -3.459,11.848C-3.887,11.28 -4.218,10.571 -4.453,9.721C-4.688,8.872 -4.807,7.896 -4.807,6.794C-4.807,5.699 -4.692,4.744 -4.464,3.929C-4.236,3.115 -3.903,2.406 -3.466,1.802C-3.038,1.216 -2.531,0.77 -1.945,0.462C-1.359,0.154 -0.703,0 0.022,0C0.383,0 0.72,0.033 1.034,0.097C1.35,0.162 1.642,0.244 1.91,0.343C2.141,0.431 2.378,0.541 2.62,0.673C2.862,0.805 3.102,0.95 3.337,1.108L3.337,3.208L3.222,3.208C3.097,3.068 2.937,2.898 2.739,2.699C2.542,2.499 2.302,2.303 2.019,2.11C1.744,1.928 1.446,1.779 1.125,1.662C0.803,1.544 0.431,1.486 0.008,1.486C-0.449,1.486 -0.881,1.6 -1.29,1.829C-1.698,2.057 -2.056,2.394 -2.363,2.839C-2.666,3.285 -2.901,3.844 -3.069,4.518C-3.238,5.192 -3.322,5.951 -3.322,6.794C-3.322,7.691 -3.233,8.463 -3.056,9.11C-2.878,9.758 -2.635,10.304 -2.327,10.749C-2.029,11.183 -1.679,11.51 -1.275,11.729C-0.871,11.949 -0.444,12.059 0.008,12.059C0.421,12.059 0.803,11.998 1.153,11.875C1.504,11.751 1.816,11.596 2.091,11.409C2.354,11.227 2.583,11.041 2.775,10.851C2.967,10.66 3.118,10.498 3.229,10.363L3.337,10.363L3.337,12.437C3.102,12.572 2.88,12.701 2.671,12.824C2.462,12.947 2.208,13.067 1.91,13.184C1.598,13.307 1.309,13.401 1.042,13.465C0.775,13.53 0.428,13.562 0,13.562Z" style="fill:none;fill-rule:nonzero;stroke:rgb(4,32,92);stroke-width:0.08px;"/>
                </g>
                <g transform="matrix(1,0,0,1,131.206,196.268)">
                    <path d="M0,-2.144C-0.01,-2.589 -0.054,-2.973 -0.13,-3.295C-0.207,-3.618 -0.317,-3.89 -0.462,-4.113C-0.62,-4.359 -0.823,-4.546 -1.07,-4.675C-1.318,-4.804 -1.625,-4.869 -1.989,-4.869C-2.35,-4.869 -2.656,-4.803 -2.908,-4.671C-3.161,-4.539 -3.391,-4.347 -3.597,-4.095C-3.799,-3.837 -3.952,-3.552 -4.058,-3.238C-4.164,-2.925 -4.231,-2.56 -4.26,-2.144L0,-2.144ZM-1.586,4.087C-2.869,4.087 -3.864,3.647 -4.573,2.765C-5.282,1.883 -5.637,0.63 -5.637,-0.993C-5.637,-2.592 -5.293,-3.865 -4.605,-4.811C-3.919,-5.758 -3.021,-6.231 -1.91,-6.231C-1.411,-6.231 -0.969,-6.143 -0.584,-5.967C-0.2,-5.791 0.137,-5.516 0.425,-5.141C0.713,-4.766 0.934,-4.308 1.088,-3.766C1.241,-3.224 1.318,-2.56 1.318,-1.775L1.318,-0.878L-4.26,-0.878C-4.26,0.264 -4.024,1.137 -3.554,1.741C-3.083,2.344 -2.432,2.646 -1.601,2.646C-1.303,2.646 -1.011,2.605 -0.725,2.523C-0.439,2.441 -0.181,2.335 0.05,2.207C0.295,2.072 0.502,1.941 0.67,1.815C0.838,1.689 0.978,1.571 1.088,1.46L1.167,1.46L1.167,3.261C1.009,3.337 0.812,3.433 0.576,3.547C0.341,3.661 0.129,3.751 -0.059,3.815C-0.322,3.903 -0.562,3.97 -0.775,4.017C-0.989,4.064 -1.26,4.087 -1.586,4.087" style="fill:rgb(7,29,73);fill-rule:nonzero;"/>
                </g>
                <g transform="matrix(1,0,0,1,131.206,196.268)">
                    <path d="M0,-2.144C-0.01,-2.589 -0.054,-2.973 -0.13,-3.295C-0.207,-3.618 -0.317,-3.89 -0.462,-4.113C-0.62,-4.359 -0.823,-4.546 -1.07,-4.675C-1.318,-4.804 -1.625,-4.869 -1.989,-4.869C-2.35,-4.869 -2.656,-4.803 -2.908,-4.671C-3.161,-4.539 -3.391,-4.347 -3.597,-4.095C-3.799,-3.837 -3.952,-3.552 -4.058,-3.238C-4.164,-2.925 -4.231,-2.56 -4.26,-2.144L0,-2.144ZM-1.586,4.087C-2.869,4.087 -3.864,3.647 -4.573,2.765C-5.282,1.883 -5.637,0.63 -5.637,-0.993C-5.637,-2.592 -5.293,-3.865 -4.605,-4.811C-3.919,-5.758 -3.021,-6.231 -1.91,-6.231C-1.411,-6.231 -0.969,-6.143 -0.584,-5.967C-0.2,-5.791 0.137,-5.516 0.425,-5.141C0.713,-4.766 0.934,-4.308 1.088,-3.766C1.241,-3.224 1.318,-2.56 1.318,-1.775L1.318,-0.878L-4.26,-0.878C-4.26,0.264 -4.024,1.137 -3.554,1.741C-3.083,2.344 -2.432,2.646 -1.601,2.646C-1.303,2.646 -1.011,2.605 -0.725,2.523C-0.439,2.441 -0.181,2.335 0.05,2.207C0.295,2.072 0.502,1.941 0.67,1.815C0.838,1.689 0.978,1.571 1.088,1.46L1.167,1.46L1.167,3.261C1.009,3.337 0.812,3.433 0.576,3.547C0.341,3.661 0.129,3.751 -0.059,3.815C-0.322,3.903 -0.562,3.97 -0.775,4.017C-0.989,4.064 -1.26,4.087 -1.586,4.087Z" style="fill:none;fill-rule:nonzero;stroke:rgb(4,32,92);stroke-width:0.08px;"/>
                </g>
                <g transform="matrix(1,0,0,1,140.222,190.037)">
                    <path d="M0,10.09L-1.354,10.09L-1.354,4.5C-1.354,4.049 -1.373,3.629 -1.409,3.239C-1.444,2.849 -1.514,2.537 -1.614,2.303C-1.725,2.057 -1.879,1.874 -2.075,1.754C-2.272,1.633 -2.541,1.573 -2.883,1.573C-3.219,1.573 -3.566,1.683 -3.924,1.903C-4.282,2.123 -4.632,2.408 -4.973,2.76L-4.973,10.09L-6.327,10.09L-6.327,0.273L-4.973,0.273L-4.973,1.362C-4.569,0.923 -4.17,0.586 -3.776,0.352C-3.382,0.117 -2.967,0 -2.529,0C-1.736,0 -1.117,0.318 -0.67,0.954C-0.224,1.59 0,2.511 0,3.718L0,10.09Z" style="fill:rgb(7,29,73);fill-rule:nonzero;stroke:rgb(4,32,92);stroke-width:0.08px;"/>
                </g>
                <g transform="matrix(1,0,0,1,144.561,187.489)">
                    <path d="M0,12.832C-0.74,12.832 -1.316,12.576 -1.729,12.063C-2.143,11.55 -2.35,10.74 -2.35,9.633L-2.35,4.192L-3.265,4.192L-3.265,2.821L-2.35,2.821L-2.35,0L-0.994,0L-0.994,2.821L1.499,2.821L1.499,4.192L-0.994,4.192L-0.994,8.859C-0.994,9.357 -0.987,9.741 -0.973,10.011C-0.958,10.28 -0.903,10.532 -0.807,10.767C-0.726,10.972 -0.594,11.125 -0.411,11.228C-0.229,11.331 0.02,11.382 0.332,11.382C0.553,11.382 0.767,11.342 0.973,11.263C1.18,11.184 1.328,11.118 1.42,11.065L1.499,11.065L1.499,12.551C1.244,12.639 0.986,12.707 0.725,12.757C0.463,12.807 0.221,12.832 0,12.832" style="fill:rgb(7,29,73);fill-rule:nonzero;"/>
                </g>
                <g transform="matrix(1,0,0,1,144.561,187.489)">
                    <path d="M0,12.832C-0.74,12.832 -1.316,12.576 -1.729,12.063C-2.143,11.55 -2.35,10.74 -2.35,9.633L-2.35,4.192L-3.265,4.192L-3.265,2.821L-2.35,2.821L-2.35,0L-0.994,0L-0.994,2.821L1.499,2.821L1.499,4.192L-0.994,4.192L-0.994,8.859C-0.994,9.357 -0.987,9.741 -0.973,10.011C-0.958,10.28 -0.903,10.532 -0.807,10.767C-0.726,10.972 -0.594,11.125 -0.411,11.228C-0.229,11.331 0.02,11.382 0.332,11.382C0.553,11.382 0.767,11.342 0.973,11.263C1.18,11.184 1.328,11.118 1.42,11.065L1.499,11.065L1.499,12.551C1.244,12.639 0.986,12.707 0.725,12.757C0.463,12.807 0.221,12.832 0,12.832Z" style="fill:none;fill-rule:nonzero;stroke:rgb(4,32,92);stroke-width:0.08px;"/>
                </g>
                <g transform="matrix(1,0,0,1,151.329,198.352)">
                    <path d="M0,-6.267L-0.072,-6.267C-0.174,-6.302 -0.28,-6.324 -0.394,-6.333C-0.506,-6.342 -0.642,-6.346 -0.801,-6.346C-1.166,-6.346 -1.528,-6.249 -1.889,-6.056C-2.249,-5.863 -2.59,-5.576 -2.912,-5.195L-2.912,1.775L-4.267,1.775L-4.267,-8.042L-2.912,-8.042L-2.912,-6.583C-2.417,-7.117 -1.986,-7.493 -1.618,-7.713C-1.251,-7.933 -0.895,-8.042 -0.548,-8.042C-0.409,-8.042 -0.305,-8.038 -0.234,-8.029C-0.165,-8.02 -0.087,-8.007 0,-7.99L0,-6.267Z" style="fill:rgb(7,29,73);fill-rule:nonzero;stroke:rgb(4,32,92);stroke-width:0.08px;"/>
                </g>
                <g transform="matrix(1,0,0,1,157.533,195.214)">
                    <path d="M0,0.009C0,-1.262 -0.189,-2.207 -0.569,-2.825C-0.949,-3.444 -1.489,-3.753 -2.19,-3.753C-2.897,-3.753 -3.441,-3.444 -3.823,-2.825C-4.205,-2.207 -4.396,-1.262 -4.396,0.009C-4.396,1.239 -4.205,2.173 -3.823,2.808C-3.441,3.444 -2.897,3.762 -2.19,3.762C-1.494,3.762 -0.955,3.45 -0.573,2.826C-0.19,2.202 0,1.263 0,0.009M1.398,0.009C1.398,1.661 1.071,2.937 0.418,3.837C-0.235,4.736 -1.105,5.186 -2.19,5.186C-3.311,5.186 -4.19,4.721 -4.832,3.793C-5.474,2.864 -5.794,1.603 -5.794,0.009C-5.794,-1.632 -5.464,-2.906 -4.804,-3.814C-4.143,-4.722 -3.271,-5.177 -2.19,-5.177C-1.105,-5.177 -0.235,-4.724 0.418,-3.819C1.071,-2.913 1.398,-1.637 1.398,0.009" style="fill:rgb(7,29,73);fill-rule:nonzero;"/>
                </g>
                <g transform="matrix(1,0,0,1,157.533,195.214)">
                    <path d="M0,0.009C0,-1.262 -0.189,-2.207 -0.569,-2.825C-0.949,-3.444 -1.489,-3.753 -2.19,-3.753C-2.897,-3.753 -3.441,-3.444 -3.823,-2.825C-4.205,-2.207 -4.396,-1.262 -4.396,0.009C-4.396,1.239 -4.205,2.173 -3.823,2.808C-3.441,3.444 -2.897,3.762 -2.19,3.762C-1.494,3.762 -0.955,3.45 -0.573,2.826C-0.19,2.202 0,1.263 0,0.009ZM1.398,0.009C1.398,1.661 1.071,2.937 0.418,3.837C-0.235,4.736 -1.105,5.186 -2.19,5.186C-3.311,5.186 -4.19,4.721 -4.832,3.793C-5.474,2.864 -5.794,1.603 -5.794,0.009C-5.794,-1.632 -5.464,-2.906 -4.804,-3.814C-4.143,-4.722 -3.271,-5.177 -2.19,-5.177C-1.105,-5.177 -0.235,-4.724 0.418,-3.819C1.071,-2.913 1.398,-1.637 1.398,0.009Z" style="fill:none;fill-rule:nonzero;stroke:rgb(4,32,92);stroke-width:0.08px;"/>
                </g>
                <g transform="matrix(1,0,0,1,121.117,208.641)">
                    <path d="M0,13.359C-0.63,13.359 -1.18,13.258 -1.65,13.056C-2.121,12.854 -2.522,12.553 -2.854,12.155C-3.229,11.698 -3.493,11.151 -3.646,10.516C-3.801,9.88 -3.877,9.096 -3.877,8.165L-3.877,0L-2.45,0L-2.45,8.165C-2.45,8.768 -2.419,9.276 -2.356,9.69C-2.294,10.103 -2.172,10.473 -1.989,10.801C-1.797,11.153 -1.536,11.42 -1.207,11.601C-0.878,11.783 -0.476,11.874 0,11.874C0.446,11.874 0.843,11.783 1.189,11.601C1.535,11.42 1.804,11.153 1.996,10.801C2.174,10.467 2.295,10.098 2.36,9.694C2.425,9.29 2.457,8.795 2.457,8.209L2.457,0L3.885,0L3.885,8.165C3.885,9.073 3.809,9.852 3.657,10.503C3.506,11.153 3.24,11.704 2.861,12.155C2.52,12.559 2.122,12.861 1.668,13.06C1.214,13.259 0.658,13.359 0,13.359" style="fill:rgb(7,29,73);fill-rule:nonzero;"/>
                </g>
                <g transform="matrix(1,0,0,1,121.117,208.641)">
                    <path d="M0,13.359C-0.63,13.359 -1.18,13.258 -1.65,13.056C-2.121,12.854 -2.522,12.553 -2.854,12.155C-3.229,11.698 -3.493,11.151 -3.646,10.516C-3.801,9.88 -3.877,9.096 -3.877,8.165L-3.877,0L-2.45,0L-2.45,8.165C-2.45,8.768 -2.419,9.276 -2.356,9.69C-2.294,10.103 -2.172,10.473 -1.989,10.801C-1.797,11.153 -1.536,11.42 -1.207,11.601C-0.878,11.783 -0.476,11.874 0,11.874C0.446,11.874 0.843,11.783 1.189,11.601C1.535,11.42 1.804,11.153 1.996,10.801C2.174,10.467 2.295,10.098 2.36,9.694C2.425,9.29 2.457,8.795 2.457,8.209L2.457,0L3.885,0L3.885,8.165C3.885,9.073 3.809,9.852 3.657,10.503C3.506,11.153 3.24,11.704 2.861,12.155C2.52,12.559 2.122,12.861 1.668,13.06C1.214,13.259 0.658,13.359 0,13.359Z" style="fill:none;fill-rule:nonzero;stroke:rgb(4,32,92);stroke-width:0.08px;"/>
                </g>
                <g transform="matrix(1,0,0,1,133.267,211.637)">
                    <path d="M0,10.09L-1.354,10.09L-1.354,4.5C-1.354,4.049 -1.373,3.629 -1.409,3.239C-1.444,2.849 -1.514,2.537 -1.614,2.303C-1.725,2.057 -1.879,1.874 -2.075,1.754C-2.272,1.633 -2.541,1.573 -2.883,1.573C-3.219,1.573 -3.566,1.683 -3.924,1.903C-4.282,2.123 -4.632,2.408 -4.973,2.76L-4.973,10.09L-6.327,10.09L-6.327,0.273L-4.973,0.273L-4.973,1.362C-4.569,0.923 -4.17,0.586 -3.776,0.352C-3.382,0.117 -2.967,0 -2.529,0C-1.736,0 -1.117,0.318 -0.67,0.954C-0.224,1.59 0,2.511 0,3.718L0,10.09Z" style="fill:rgb(7,29,73);fill-rule:nonzero;stroke:rgb(4,32,92);stroke-width:0.08px;"/>
                </g>
                <g transform="matrix(1,0,0,1,0,159.332)">
                    <path d="M136.554,62.395L135.199,62.395L135.199,52.578L136.554,52.578L136.554,62.395ZM136.648,50.934L135.105,50.934L135.105,49.22L136.648,49.22L136.648,50.934Z" style="fill:rgb(7,29,73);fill-rule:nonzero;stroke:rgb(4,32,92);stroke-width:0.08px;"/>
                </g>
                <g transform="matrix(1,0,0,1,144.871,221.727)">
                    <path d="M0,-9.817L-3.034,0L-4.252,0L-7.265,-9.817L-5.802,-9.817L-3.596,-2.241L-1.412,-9.817L0,-9.817Z" style="fill:rgb(7,29,73);fill-rule:nonzero;stroke:rgb(4,32,92);stroke-width:0.08px;"/>
                </g>
                <g transform="matrix(1,0,0,1,150.86,217.868)">
                    <path d="M0,-2.144C-0.01,-2.589 -0.054,-2.973 -0.13,-3.295C-0.207,-3.618 -0.317,-3.89 -0.462,-4.113C-0.62,-4.359 -0.823,-4.546 -1.07,-4.675C-1.318,-4.804 -1.625,-4.869 -1.989,-4.869C-2.35,-4.869 -2.656,-4.803 -2.908,-4.671C-3.161,-4.539 -3.391,-4.347 -3.597,-4.095C-3.799,-3.837 -3.952,-3.552 -4.058,-3.238C-4.164,-2.925 -4.231,-2.56 -4.26,-2.144L0,-2.144ZM-1.586,4.087C-2.869,4.087 -3.864,3.647 -4.573,2.765C-5.282,1.883 -5.637,0.63 -5.637,-0.993C-5.637,-2.592 -5.293,-3.865 -4.605,-4.811C-3.919,-5.758 -3.021,-6.231 -1.91,-6.231C-1.411,-6.231 -0.969,-6.143 -0.584,-5.967C-0.2,-5.791 0.137,-5.516 0.425,-5.141C0.713,-4.766 0.934,-4.308 1.088,-3.766C1.241,-3.224 1.318,-2.56 1.318,-1.775L1.318,-0.878L-4.26,-0.878C-4.26,0.264 -4.024,1.137 -3.554,1.741C-3.083,2.344 -2.432,2.646 -1.601,2.646C-1.303,2.646 -1.011,2.605 -0.725,2.523C-0.439,2.441 -0.181,2.335 0.05,2.207C0.295,2.072 0.502,1.941 0.67,1.815C0.838,1.689 0.978,1.571 1.088,1.46L1.167,1.46L1.167,3.261C1.009,3.337 0.812,3.433 0.576,3.547C0.341,3.661 0.129,3.751 -0.059,3.815C-0.322,3.903 -0.562,3.97 -0.775,4.017C-0.989,4.064 -1.26,4.087 -1.586,4.087" style="fill:rgb(7,29,73);fill-rule:nonzero;"/>
                </g>
                <g transform="matrix(1,0,0,1,150.86,217.868)">
                    <path d="M0,-2.144C-0.01,-2.589 -0.054,-2.973 -0.13,-3.295C-0.207,-3.618 -0.317,-3.89 -0.462,-4.113C-0.62,-4.359 -0.823,-4.546 -1.07,-4.675C-1.318,-4.804 -1.625,-4.869 -1.989,-4.869C-2.35,-4.869 -2.656,-4.803 -2.908,-4.671C-3.161,-4.539 -3.391,-4.347 -3.597,-4.095C-3.799,-3.837 -3.952,-3.552 -4.058,-3.238C-4.164,-2.925 -4.231,-2.56 -4.26,-2.144L0,-2.144ZM-1.586,4.087C-2.869,4.087 -3.864,3.647 -4.573,2.765C-5.282,1.883 -5.637,0.63 -5.637,-0.993C-5.637,-2.592 -5.293,-3.865 -4.605,-4.811C-3.919,-5.758 -3.021,-6.231 -1.91,-6.231C-1.411,-6.231 -0.969,-6.143 -0.584,-5.967C-0.2,-5.791 0.137,-5.516 0.425,-5.141C0.713,-4.766 0.934,-4.308 1.088,-3.766C1.241,-3.224 1.318,-2.56 1.318,-1.775L1.318,-0.878L-4.26,-0.878C-4.26,0.264 -4.024,1.137 -3.554,1.741C-3.083,2.344 -2.432,2.646 -1.601,2.646C-1.303,2.646 -1.011,2.605 -0.725,2.523C-0.439,2.441 -0.181,2.335 0.05,2.207C0.295,2.072 0.502,1.941 0.67,1.815C0.838,1.689 0.978,1.571 1.088,1.46L1.167,1.46L1.167,3.261C1.009,3.337 0.812,3.433 0.576,3.547C0.341,3.661 0.129,3.751 -0.059,3.815C-0.322,3.903 -0.562,3.97 -0.775,4.017C-0.989,4.064 -1.26,4.087 -1.586,4.087Z" style="fill:none;fill-rule:nonzero;stroke:rgb(4,32,92);stroke-width:0.08px;"/>
                </g>
                <g transform="matrix(1,0,0,1,157.815,219.952)">
                    <path d="M0,-6.267L-0.072,-6.267C-0.174,-6.302 -0.28,-6.324 -0.394,-6.333C-0.506,-6.342 -0.642,-6.346 -0.801,-6.346C-1.166,-6.346 -1.528,-6.249 -1.889,-6.056C-2.249,-5.863 -2.59,-5.576 -2.912,-5.195L-2.912,1.775L-4.267,1.775L-4.267,-8.042L-2.912,-8.042L-2.912,-6.583C-2.417,-7.117 -1.986,-7.493 -1.618,-7.713C-1.251,-7.933 -0.895,-8.042 -0.548,-8.042C-0.409,-8.042 -0.305,-8.038 -0.234,-8.029C-0.165,-8.02 -0.087,-8.007 0,-7.99L0,-6.267Z" style="fill:rgb(7,29,73);fill-rule:nonzero;stroke:rgb(4,32,92);stroke-width:0.08px;"/>
                </g>
                <g transform="matrix(1,0,0,1,161.042,211.673)">
                    <path d="M0,10.292C-0.538,10.292 -1.041,10.204 -1.51,10.028C-1.978,9.853 -2.366,9.665 -2.674,9.466L-2.674,7.611L-2.602,7.611C-2.486,7.723 -2.351,7.846 -2.194,7.98C-2.038,8.115 -1.83,8.256 -1.57,8.402C-1.34,8.531 -1.087,8.646 -0.811,8.745C-0.534,8.845 -0.247,8.895 0.051,8.895C0.267,8.895 0.498,8.864 0.743,8.802C0.987,8.741 1.17,8.663 1.29,8.569C1.459,8.435 1.58,8.291 1.654,8.139C1.729,7.986 1.766,7.758 1.766,7.453C1.766,7.061 1.679,6.765 1.503,6.565C1.327,6.366 1.017,6.199 0.569,6.064C0.396,6.012 0.171,5.95 -0.107,5.88C-0.387,5.81 -0.644,5.733 -0.879,5.651C-1.494,5.435 -1.94,5.099 -2.22,4.645C-2.498,4.191 -2.638,3.642 -2.638,2.997C-2.638,2.112 -2.363,1.392 -1.815,0.835C-1.268,0.278 -0.54,0 0.368,0C0.814,0 1.264,0.067 1.716,0.202C2.167,0.337 2.547,0.507 2.854,0.712L2.854,2.479L2.782,2.479C2.437,2.145 2.051,1.881 1.626,1.688C1.2,1.494 0.771,1.397 0.339,1.397C-0.107,1.397 -0.485,1.512 -0.792,1.74C-1.1,1.969 -1.254,2.314 -1.254,2.777C-1.254,3.188 -1.162,3.494 -0.979,3.696C-0.797,3.898 -0.504,4.063 -0.101,4.192C0.102,4.257 0.326,4.32 0.573,4.381C0.82,4.443 1.081,4.515 1.355,4.597C1.951,4.778 2.399,5.08 2.699,5.502C3,5.924 3.149,6.498 3.149,7.225C3.149,7.646 3.081,8.046 2.944,8.424C2.808,8.802 2.606,9.126 2.343,9.396C2.055,9.688 1.729,9.911 1.366,10.063C1.003,10.216 0.548,10.292 0,10.292" style="fill:rgb(7,29,73);fill-rule:nonzero;"/>
                </g>
                <g transform="matrix(1,0,0,1,161.042,211.673)">
                    <path d="M0,10.292C-0.538,10.292 -1.041,10.204 -1.51,10.028C-1.978,9.853 -2.366,9.665 -2.674,9.466L-2.674,7.611L-2.602,7.611C-2.486,7.723 -2.351,7.846 -2.194,7.98C-2.038,8.115 -1.83,8.256 -1.57,8.402C-1.34,8.531 -1.087,8.646 -0.811,8.745C-0.534,8.845 -0.247,8.895 0.051,8.895C0.267,8.895 0.498,8.864 0.743,8.802C0.987,8.741 1.17,8.663 1.29,8.569C1.459,8.435 1.58,8.291 1.654,8.139C1.729,7.986 1.766,7.758 1.766,7.453C1.766,7.061 1.679,6.765 1.503,6.565C1.327,6.366 1.017,6.199 0.569,6.064C0.396,6.012 0.171,5.95 -0.107,5.88C-0.387,5.81 -0.644,5.733 -0.879,5.651C-1.494,5.435 -1.94,5.099 -2.22,4.645C-2.498,4.191 -2.638,3.642 -2.638,2.997C-2.638,2.112 -2.363,1.392 -1.815,0.835C-1.268,0.278 -0.54,0 0.368,0C0.814,0 1.264,0.067 1.716,0.202C2.167,0.337 2.547,0.507 2.854,0.712L2.854,2.479L2.782,2.479C2.437,2.145 2.051,1.881 1.626,1.688C1.2,1.494 0.771,1.397 0.339,1.397C-0.107,1.397 -0.485,1.512 -0.792,1.74C-1.1,1.969 -1.254,2.314 -1.254,2.777C-1.254,3.188 -1.162,3.494 -0.979,3.696C-0.797,3.898 -0.504,4.063 -0.101,4.192C0.102,4.257 0.326,4.32 0.573,4.381C0.82,4.443 1.081,4.515 1.355,4.597C1.951,4.778 2.399,5.08 2.699,5.502C3,5.924 3.149,6.498 3.149,7.225C3.149,7.646 3.081,8.046 2.944,8.424C2.808,8.802 2.606,9.126 2.343,9.396C2.055,9.688 1.729,9.911 1.366,10.063C1.003,10.216 0.548,10.292 0,10.292Z" style="fill:none;fill-rule:nonzero;stroke:rgb(4,32,92);stroke-width:0.08px;"/>
                </g>
                <g transform="matrix(1,0,0,1,0,159.332)">
                    <path d="M166.837,62.395L165.482,62.395L165.482,52.578L166.837,52.578L166.837,62.395ZM166.931,50.934L165.388,50.934L165.388,49.22L166.931,49.22L166.931,50.934Z" style="fill:rgb(7,29,73);fill-rule:nonzero;stroke:rgb(4,32,92);stroke-width:0.08px;"/>
                </g>
                <g transform="matrix(1,0,0,1,171.29,209.089)">
                    <path d="M0,12.832C-0.74,12.832 -1.316,12.576 -1.729,12.063C-2.143,11.55 -2.35,10.74 -2.35,9.633L-2.35,4.192L-3.265,4.192L-3.265,2.821L-2.35,2.821L-2.35,0L-0.994,0L-0.994,2.821L1.499,2.821L1.499,4.192L-0.994,4.192L-0.994,8.859C-0.994,9.357 -0.987,9.741 -0.973,10.011C-0.958,10.28 -0.903,10.532 -0.807,10.767C-0.726,10.972 -0.594,11.125 -0.411,11.228C-0.229,11.331 0.02,11.382 0.332,11.382C0.553,11.382 0.767,11.342 0.973,11.263C1.18,11.184 1.328,11.118 1.42,11.065L1.499,11.065L1.499,12.551C1.244,12.639 0.986,12.707 0.725,12.757C0.463,12.807 0.221,12.832 0,12.832" style="fill:rgb(7,29,73);fill-rule:nonzero;"/>
                </g>
                <g transform="matrix(1,0,0,1,171.29,209.089)">
                    <path d="M0,12.832C-0.74,12.832 -1.316,12.576 -1.729,12.063C-2.143,11.55 -2.35,10.74 -2.35,9.633L-2.35,4.192L-3.265,4.192L-3.265,2.821L-2.35,2.821L-2.35,0L-0.994,0L-0.994,2.821L1.499,2.821L1.499,4.192L-0.994,4.192L-0.994,8.859C-0.994,9.357 -0.987,9.741 -0.973,10.011C-0.958,10.28 -0.903,10.532 -0.807,10.767C-0.726,10.972 -0.594,11.125 -0.411,11.228C-0.229,11.331 0.02,11.382 0.332,11.382C0.553,11.382 0.767,11.342 0.973,11.263C1.18,11.184 1.328,11.118 1.42,11.065L1.499,11.065L1.499,12.551C1.244,12.639 0.986,12.707 0.725,12.757C0.463,12.807 0.221,12.832 0,12.832Z" style="fill:none;fill-rule:nonzero;stroke:rgb(4,32,92);stroke-width:0.08px;"/>
                </g>
                <g transform="matrix(1,0,0,1,178.288,214.361)">
                    <path d="M0,4.949L0,2.224C-0.322,2.26 -0.729,2.308 -1.222,2.369C-1.715,2.431 -2.112,2.517 -2.415,2.629C-2.775,2.763 -3.073,2.97 -3.309,3.248C-3.544,3.527 -3.661,3.915 -3.661,4.413C-3.661,4.975 -3.531,5.4 -3.272,5.687C-3.013,5.974 -2.633,6.118 -2.134,6.118C-1.706,6.118 -1.319,6.005 -0.974,5.78C-0.627,5.554 -0.303,5.277 0,4.949ZM0,6.32C-0.111,6.42 -0.259,6.559 -0.443,6.738C-0.629,6.916 -0.808,7.058 -0.98,7.164C-1.221,7.316 -1.452,7.433 -1.676,7.515C-1.899,7.597 -2.213,7.638 -2.616,7.638C-2.948,7.638 -3.263,7.562 -3.561,7.41C-3.858,7.258 -4.12,7.044 -4.346,6.768C-4.562,6.499 -4.735,6.166 -4.865,5.771C-4.995,5.375 -5.06,4.958 -5.06,4.518C-5.06,3.839 -4.941,3.26 -4.706,2.782C-4.471,2.305 -4.099,1.926 -3.589,1.644C-3.138,1.392 -2.604,1.218 -1.989,1.121C-1.374,1.025 -0.711,0.953 0,0.906L0,0.59C0,0.203 -0.049,-0.109 -0.145,-0.346C-0.24,-0.584 -0.375,-0.767 -0.548,-0.896C-0.721,-1.03 -0.933,-1.12 -1.183,-1.164C-1.432,-1.208 -1.689,-1.23 -1.953,-1.23C-2.266,-1.23 -2.633,-1.173 -3.056,-1.058C-3.479,-0.944 -3.901,-0.779 -4.324,-0.562L-4.403,-0.562L-4.403,-2.24C-4.154,-2.328 -3.796,-2.425 -3.33,-2.53C-2.864,-2.636 -2.402,-2.689 -1.946,-2.689C-1.394,-2.689 -0.928,-2.636 -0.548,-2.53C-0.169,-2.425 0.173,-2.235 0.476,-1.959C0.769,-1.69 0.987,-1.341 1.131,-0.913C1.275,-0.486 1.348,0.036 1.348,0.651L1.348,7.366L0,7.366L0,6.32Z" style="fill:rgb(7,29,73);fill-rule:nonzero;stroke:rgb(4,32,92);stroke-width:0.08px;"/>
                </g>
                <g transform="matrix(1,0,0,1,185.805,219.952)">
                    <path d="M0,-6.267L-0.072,-6.267C-0.174,-6.302 -0.28,-6.324 -0.394,-6.333C-0.506,-6.342 -0.642,-6.346 -0.801,-6.346C-1.166,-6.346 -1.528,-6.249 -1.889,-6.056C-2.249,-5.863 -2.59,-5.576 -2.912,-5.195L-2.912,1.775L-4.267,1.775L-4.267,-8.042L-2.912,-8.042L-2.912,-6.583C-2.417,-7.117 -1.986,-7.493 -1.618,-7.713C-1.251,-7.933 -0.895,-8.042 -0.548,-8.042C-0.409,-8.042 -0.305,-8.038 -0.234,-8.029C-0.165,-8.02 -0.087,-8.007 0,-7.99L0,-6.267Z" style="fill:rgb(7,29,73);fill-rule:nonzero;stroke:rgb(4,32,92);stroke-width:0.08px;"/>
                </g>
                <g transform="matrix(1,0,0,1,0,159.332)">
                    <path d="M188.241,62.395L186.886,62.395L186.886,52.578L188.241,52.578L188.241,62.395ZM188.334,50.934L186.791,50.934L186.791,49.22L188.334,49.22L188.334,50.934Z" style="fill:rgb(7,29,73);fill-rule:nonzero;stroke:rgb(4,32,92);stroke-width:0.08px;"/>
                </g>
                <g transform="matrix(1,0,0,1,195.454,216.814)">
                    <path d="M0,0.009C0,-1.262 -0.189,-2.207 -0.569,-2.825C-0.949,-3.444 -1.489,-3.753 -2.19,-3.753C-2.897,-3.753 -3.441,-3.444 -3.823,-2.825C-4.205,-2.207 -4.396,-1.262 -4.396,0.009C-4.396,1.239 -4.205,2.173 -3.823,2.808C-3.441,3.444 -2.897,3.762 -2.19,3.762C-1.494,3.762 -0.955,3.45 -0.573,2.826C-0.19,2.202 0,1.263 0,0.009M1.398,0.009C1.398,1.661 1.071,2.937 0.418,3.837C-0.235,4.736 -1.105,5.186 -2.19,5.186C-3.311,5.186 -4.19,4.721 -4.832,3.793C-5.474,2.864 -5.794,1.603 -5.794,0.009C-5.794,-1.632 -5.464,-2.906 -4.804,-3.814C-4.143,-4.722 -3.271,-5.177 -2.19,-5.177C-1.105,-5.177 -0.235,-4.724 0.418,-3.819C1.071,-2.913 1.398,-1.637 1.398,0.009" style="fill:rgb(7,29,73);fill-rule:nonzero;"/>
                </g>
                <g transform="matrix(1,0,0,1,195.454,216.814)">
                    <path d="M0,0.009C0,-1.262 -0.189,-2.207 -0.569,-2.825C-0.949,-3.444 -1.489,-3.753 -2.19,-3.753C-2.897,-3.753 -3.441,-3.444 -3.823,-2.825C-4.205,-2.207 -4.396,-1.262 -4.396,0.009C-4.396,1.239 -4.205,2.173 -3.823,2.808C-3.441,3.444 -2.897,3.762 -2.19,3.762C-1.494,3.762 -0.955,3.45 -0.573,2.826C-0.19,2.202 0,1.263 0,0.009ZM1.398,0.009C1.398,1.661 1.071,2.937 0.418,3.837C-0.235,4.736 -1.105,5.186 -2.19,5.186C-3.311,5.186 -4.19,4.721 -4.832,3.793C-5.474,2.864 -5.794,1.603 -5.794,0.009C-5.794,-1.632 -5.464,-2.906 -4.804,-3.814C-4.143,-4.722 -3.271,-5.177 -2.19,-5.177C-1.105,-5.177 -0.235,-4.724 0.418,-3.819C1.071,-2.913 1.398,-1.637 1.398,0.009Z" style="fill:none;fill-rule:nonzero;stroke:rgb(4,32,92);stroke-width:0.08px;"/>
                </g>
                <g transform="matrix(1,0,0,1,123.588,230.24)">
                    <path d="M0,13.087L-6.22,13.087L-6.22,0L-4.792,0L-4.792,11.54L0,11.54L0,13.087Z" style="fill:rgb(7,29,73);fill-rule:nonzero;stroke:rgb(4,32,92);stroke-width:0.08px;"/>
                </g>
                <g transform="matrix(1,0,0,1,129.102,235.961)">
                    <path d="M0,4.949L0,2.224C-0.322,2.26 -0.729,2.308 -1.222,2.369C-1.715,2.431 -2.112,2.517 -2.415,2.629C-2.775,2.763 -3.073,2.97 -3.309,3.248C-3.544,3.527 -3.661,3.915 -3.661,4.413C-3.661,4.975 -3.531,5.4 -3.272,5.687C-3.013,5.974 -2.633,6.118 -2.134,6.118C-1.706,6.118 -1.319,6.005 -0.974,5.78C-0.627,5.554 -0.303,5.277 0,4.949ZM0,6.32C-0.111,6.42 -0.259,6.559 -0.443,6.738C-0.629,6.916 -0.808,7.058 -0.98,7.164C-1.221,7.316 -1.452,7.433 -1.676,7.515C-1.899,7.597 -2.213,7.638 -2.616,7.638C-2.948,7.638 -3.263,7.562 -3.561,7.41C-3.858,7.258 -4.12,7.044 -4.346,6.768C-4.562,6.499 -4.735,6.166 -4.865,5.771C-4.995,5.375 -5.06,4.958 -5.06,4.518C-5.06,3.839 -4.941,3.26 -4.706,2.782C-4.471,2.305 -4.099,1.926 -3.589,1.644C-3.138,1.392 -2.604,1.218 -1.989,1.121C-1.374,1.025 -0.711,0.953 0,0.906L0,0.59C0,0.203 -0.049,-0.109 -0.145,-0.346C-0.24,-0.584 -0.375,-0.767 -0.548,-0.896C-0.721,-1.03 -0.933,-1.12 -1.183,-1.164C-1.432,-1.208 -1.689,-1.23 -1.953,-1.23C-2.266,-1.23 -2.633,-1.173 -3.056,-1.058C-3.479,-0.944 -3.901,-0.779 -4.324,-0.562L-4.403,-0.562L-4.403,-2.24C-4.154,-2.328 -3.796,-2.425 -3.33,-2.53C-2.864,-2.636 -2.402,-2.689 -1.946,-2.689C-1.394,-2.689 -0.928,-2.636 -0.548,-2.53C-0.169,-2.425 0.173,-2.235 0.476,-1.959C0.769,-1.69 0.987,-1.341 1.131,-0.913C1.275,-0.486 1.348,0.036 1.348,0.651L1.348,7.366L0,7.366L0,6.32Z" style="fill:rgb(7,29,73);fill-rule:nonzero;stroke:rgb(4,32,92);stroke-width:0.08px;"/>
                </g>
                <g transform="matrix(1,0,0,1,134.788,230.689)">
                    <path d="M0,12.832C-0.74,12.832 -1.316,12.576 -1.729,12.063C-2.143,11.55 -2.35,10.74 -2.35,9.633L-2.35,4.192L-3.265,4.192L-3.265,2.821L-2.35,2.821L-2.35,0L-0.994,0L-0.994,2.821L1.499,2.821L1.499,4.192L-0.994,4.192L-0.994,8.859C-0.994,9.357 -0.987,9.741 -0.973,10.011C-0.958,10.28 -0.903,10.532 -0.807,10.767C-0.726,10.972 -0.594,11.125 -0.411,11.228C-0.229,11.331 0.02,11.382 0.332,11.382C0.553,11.382 0.767,11.342 0.973,11.263C1.18,11.184 1.328,11.118 1.42,11.065L1.499,11.065L1.499,12.551C1.244,12.639 0.986,12.707 0.725,12.757C0.463,12.807 0.221,12.832 0,12.832" style="fill:rgb(7,29,73);fill-rule:nonzero;"/>
                </g>
                <g transform="matrix(1,0,0,1,134.788,230.689)">
                    <path d="M0,12.832C-0.74,12.832 -1.316,12.576 -1.729,12.063C-2.143,11.55 -2.35,10.74 -2.35,9.633L-2.35,4.192L-3.265,4.192L-3.265,2.821L-2.35,2.821L-2.35,0L-0.994,0L-0.994,2.821L1.499,2.821L1.499,4.192L-0.994,4.192L-0.994,8.859C-0.994,9.357 -0.987,9.741 -0.973,10.011C-0.958,10.28 -0.903,10.532 -0.807,10.767C-0.726,10.972 -0.594,11.125 -0.411,11.228C-0.229,11.331 0.02,11.382 0.332,11.382C0.553,11.382 0.767,11.342 0.973,11.263C1.18,11.184 1.328,11.118 1.42,11.065L1.499,11.065L1.499,12.551C1.244,12.639 0.986,12.707 0.725,12.757C0.463,12.807 0.221,12.832 0,12.832Z" style="fill:none;fill-rule:nonzero;stroke:rgb(4,32,92);stroke-width:0.08px;"/>
                </g>
                <g transform="matrix(1,0,0,1,141.786,235.961)">
                    <path d="M0,4.949L0,2.224C-0.322,2.26 -0.729,2.308 -1.222,2.369C-1.715,2.431 -2.112,2.517 -2.415,2.629C-2.775,2.763 -3.073,2.97 -3.309,3.248C-3.544,3.527 -3.661,3.915 -3.661,4.413C-3.661,4.975 -3.531,5.4 -3.272,5.687C-3.013,5.974 -2.633,6.118 -2.134,6.118C-1.706,6.118 -1.319,6.005 -0.974,5.78C-0.627,5.554 -0.303,5.277 0,4.949ZM0,6.32C-0.111,6.42 -0.259,6.559 -0.443,6.738C-0.629,6.916 -0.808,7.058 -0.98,7.164C-1.221,7.316 -1.452,7.433 -1.676,7.515C-1.899,7.597 -2.213,7.638 -2.616,7.638C-2.948,7.638 -3.263,7.562 -3.561,7.41C-3.858,7.258 -4.12,7.044 -4.346,6.768C-4.562,6.499 -4.735,6.166 -4.865,5.771C-4.995,5.375 -5.06,4.958 -5.06,4.518C-5.06,3.839 -4.941,3.26 -4.706,2.782C-4.471,2.305 -4.099,1.926 -3.589,1.644C-3.138,1.392 -2.604,1.218 -1.989,1.121C-1.374,1.025 -0.711,0.953 0,0.906L0,0.59C0,0.203 -0.049,-0.109 -0.145,-0.346C-0.24,-0.584 -0.375,-0.767 -0.548,-0.896C-0.721,-1.03 -0.933,-1.12 -1.183,-1.164C-1.432,-1.208 -1.689,-1.23 -1.953,-1.23C-2.266,-1.23 -2.633,-1.173 -3.056,-1.058C-3.479,-0.944 -3.901,-0.779 -4.324,-0.562L-4.403,-0.562L-4.403,-2.24C-4.154,-2.328 -3.796,-2.425 -3.33,-2.53C-2.864,-2.636 -2.402,-2.689 -1.946,-2.689C-1.394,-2.689 -0.928,-2.636 -0.548,-2.53C-0.169,-2.425 0.173,-2.235 0.476,-1.959C0.769,-1.69 0.987,-1.341 1.131,-0.913C1.275,-0.486 1.348,0.036 1.348,0.651L1.348,7.366L0,7.366L0,6.32Z" style="fill:rgb(7,29,73);fill-rule:nonzero;stroke:rgb(4,32,92);stroke-width:0.08px;"/>
                </g>
                <g transform="matrix(1,0,0,1,154.173,233.237)">
                    <path d="M0,10.09L0,4.412C0,3.961 -0.014,3.544 -0.043,3.16C-0.071,2.776 -0.132,2.476 -0.223,2.259C-0.319,2.025 -0.456,1.852 -0.634,1.74C-0.812,1.629 -1.052,1.573 -1.354,1.573C-1.633,1.573 -1.933,1.677 -2.252,1.885C-2.571,2.093 -2.901,2.394 -3.243,2.786C-3.238,2.886 -3.231,3.005 -3.225,3.142C-3.218,3.28 -3.214,3.443 -3.214,3.63L-3.214,10.09L-4.568,10.09L-4.568,4.412C-4.568,3.961 -4.583,3.544 -4.612,3.16C-4.641,2.776 -4.701,2.476 -4.792,2.259C-4.889,2.025 -5.025,1.852 -5.203,1.74C-5.381,1.629 -5.621,1.573 -5.924,1.573C-6.217,1.573 -6.524,1.685 -6.847,1.907C-7.168,2.13 -7.48,2.414 -7.783,2.76L-7.783,10.09L-9.138,10.09L-9.138,0.273L-7.783,0.273L-7.783,1.362C-7.428,0.929 -7.076,0.593 -6.728,0.356C-6.379,0.119 -5.996,0 -5.578,0C-5.103,0 -4.681,0.132 -4.312,0.396C-3.945,0.659 -3.666,1.093 -3.474,1.696C-3.065,1.14 -2.666,0.718 -2.277,0.431C-1.888,0.144 -1.465,0 -1.009,0C-0.663,0 -0.348,0.066 -0.064,0.198C0.219,0.33 0.467,0.542 0.678,0.835C0.895,1.134 1.061,1.506 1.179,1.951C1.297,2.397 1.355,2.956 1.355,3.63L1.355,10.09L0,10.09Z" style="fill:rgb(7,29,73);fill-rule:nonzero;stroke:rgb(4,32,92);stroke-width:0.08px;"/>
                </g>
                <g transform="matrix(1,0,0,1,32.4545,100.954)">
                    <path d="M0,9.129L12.084,13.247C11.273,17.068 9.994,20.259 8.249,22.821C6.503,25.384 4.337,27.317 1.75,28.621C-0.836,29.925 -4.129,30.577 -8.127,30.577C-12.977,30.577 -16.94,29.782 -20.014,28.193C-23.088,26.605 -25.742,23.81 -27.974,19.809C-30.207,15.808 -31.323,10.687 -31.323,4.444C-31.323,-3.877 -29.358,-10.273 -25.433,-14.743C-21.506,-19.212 -15.95,-21.448 -8.767,-21.448C-3.146,-21.448 1.273,-20.166 4.49,-17.603C7.706,-15.041 10.096,-11.106 11.658,-5.799L-0.517,-2.745C-0.943,-4.277 -1.391,-5.399 -1.857,-6.108C-2.628,-7.297 -3.572,-8.212 -4.688,-8.853C-5.804,-9.493 -7.052,-9.814 -8.432,-9.814C-11.557,-9.814 -13.952,-8.397 -15.616,-5.563C-16.875,-3.461 -17.503,-0.159 -17.503,4.342C-17.503,9.918 -16.752,13.739 -15.25,15.807C-13.749,17.875 -11.639,18.909 -8.919,18.909C-6.281,18.909 -4.287,18.074 -2.938,16.404C-1.588,14.734 -0.609,12.309 0,9.129Z" style="fill:rgb(7,29,73);fill-rule:nonzero;stroke:rgb(247,249,250);stroke-width:2px;"/>
                </g>
                <g transform="matrix(1,0,0,1,54.8696,118.911)">
                    <path d="M0,-5.532C-0.171,-7.846 -0.622,-9.504 -1.356,-10.505C-2.089,-11.505 -3.053,-12.005 -4.25,-12.005C-5.631,-12.005 -6.734,-11.25 -7.56,-9.74C-8.087,-8.798 -8.421,-7.396 -8.563,-5.532L0,-5.532ZM8.842,0.206L-8.584,0.206C-8.428,2.128 -8.05,3.56 -7.453,4.501C-6.613,5.855 -5.516,6.532 -4.164,6.532C-3.31,6.532 -2.499,6.238 -1.729,5.649C-1.26,5.277 -0.754,4.619 -0.214,3.677L8.35,4.766C7.041,7.905 5.46,10.156 3.609,11.519C1.759,12.882 -0.896,13.564 -4.356,13.564C-7.36,13.564 -9.723,12.98 -11.446,11.813C-13.168,10.646 -14.596,8.793 -15.728,6.252C-16.859,3.712 -17.426,0.725 -17.426,-2.707C-17.426,-7.592 -16.291,-11.544 -14.019,-14.565C-11.749,-17.586 -8.613,-19.096 -4.612,-19.096C-1.367,-19.096 1.196,-18.42 3.075,-17.067C4.955,-15.713 6.386,-13.751 7.368,-11.181C8.35,-8.611 8.842,-5.267 8.842,-1.148L8.842,0.206Z" style="fill:rgb(7,29,73);fill-rule:nonzero;stroke:rgb(247,249,250);stroke-width:2px;"/>
                </g>
                <g transform="matrix(1,0,0,1,0,-90.082)">
                    <rect x="84.87" y="160.859" width="10.66" height="39.311" style="fill:rgb(7,29,73);stroke:rgb(247,249,250);stroke-width:2px;"/>
                </g>
                <g transform="matrix(1,0,0,1,84.8696,91.0636)">
                    <path d="M0,27.318L-7.745,27.318L-7.745,22.791C-8.899,24.651 -10.065,25.976 -11.241,26.765C-12.416,27.555 -13.859,27.949 -15.571,27.949C-17.854,27.949 -19.646,27.068 -20.943,25.305C-22.24,23.541 -22.889,20.827 -22.889,17.159L-22.889,-0.631L-14.553,-0.631L-14.553,14.738C-14.553,16.493 -14.301,17.738 -13.798,18.475C-13.296,19.212 -12.59,19.581 -11.678,19.581C-10.688,19.581 -9.875,19.089 -9.243,18.107C-8.611,17.124 -8.295,15.361 -8.295,12.817L-8.295,-0.631L0,-0.631L0,27.318Z" style="fill:rgb(7,29,73);fill-rule:nonzero;stroke:rgb(247,249,250);stroke-width:2px;"/>
                </g>
            </g>
        </g>
    </g>
</svg>
