<?xml version="1.0" encoding="UTF-8" standalone="no"?>
<!DOCTYPE svg PUBLIC "-//W3C//DTD SVG 1.1//EN" "http://www.w3.org/Graphics/SVG/1.1/DTD/svg11.dtd">
<svg width="100%" height="100%" viewBox="0 0 981 1129" version="1.1" xmlns="http://www.w3.org/2000/svg" xmlns:xlink="http://www.w3.org/1999/xlink" xml:space="preserve" xmlns:serif="http://www.serif.com/" style="fill-rule:evenodd;clip-rule:evenodd;stroke-linejoin:round;stroke-miterlimit:2;">
    <g transform="matrix(1,0,0,1,-710,-100)">
        <g transform="matrix(4.16667,0,0,4.16667,0,0)">
            <g id="ceul" transform="matrix(1,0,0,1,-40.8814,-6.6441)">
                <g>
                    <g transform="matrix(1,0,0,1,283.876,281.877)">
                        <path d="M0,-38.688L-62.98,-13.367L-51.046,0L0,-38.688Z" style="fill:rgb(15,71,187);"/>
                    </g>
                    <g transform="matrix(1,0,0,1,323.825,275.668)">
                        <path d="M0,-21.721L0.165,10.696L-11.354,-1.973L-27.81,-25.012L-11.683,-10.696L-25.506,-29.455L-6.089,-12.013L-19.089,-30.771L-2.14,-15.961L-13.987,-32.417L0,-21.721Z" style="fill:rgb(6,34,79);"/>
                    </g>
                    <g transform="matrix(1,0,0,1,325.598,217.319)">
                        <path d="M0,66.151L-1.109,0L-25.709,15.838L-21.077,34.332L-20.86,34.66L-7.861,46.337L-20.861,27.578L-3.912,42.388L-15.76,25.932L-1.772,36.628L-1.635,63.681L0,66.151Z" style="fill:rgb(49,96,173);"/>
                    </g>
                    <g transform="matrix(1,0,0,1,301.621,233.042)">
                        <path d="M0,17.653L10.521,31.931L5.471,27.448L0.573,20.054L0,17.653ZM21.197,20.135L20.705,-14.278L-3.895,1.314L-0.459,15.726L16.115,30.614L3.115,11.856L20.064,26.665L8.217,10.21L21.197,20.135Z" style="fill:rgb(15,71,187);"/>
                    </g>
                    <g transform="matrix(1,0,0,1,285.242,284.966)">
                        <path d="M0,-43.113L-52,-3.62L-49.038,0L0,-43.113Z" style="fill:rgb(6,34,79);"/>
                    </g>
                    <g transform="matrix(1,0,0,1,286.717,301.591)">
                        <path d="M0,-60.556L-43.113,0L-62.53,-13.163L-53.365,-20.111L-50.513,-16.625L-3.956,-57.557L0,-60.556Z" style="fill:rgb(148,168,204);"/>
                    </g>
                    <g transform="matrix(0.203939,0.978984,0.978984,-0.203939,306.056,204.252)">
                        <path d="M12.425,-14.293L28.562,-14.293L17.256,15.347L1.977,17.858L12.425,-14.293Z" style="fill:rgb(7,29,73);"/>
                    </g>
                    <g transform="matrix(1,0,0,1,295.753,180.444)">
                        <path d="M0,38.225L24.704,-14.786L45.026,27.134L22.73,17.468L10.379,32.289L0,38.225ZM-6.891,53.011L-0.895,40.143L0.052,44.681L-6.891,53.011Z" style="fill:rgb(7,29,73);"/>
                    </g>
                    <g transform="matrix(1,0,0,1,303.882,182.566)">
                        <path d="M0,18.661L-92.53,10.248L-31.974,2.35L8.696,0L4.552,8.89L0,18.661Z" style="fill:rgb(15,71,187);"/>
                    </g>
                    <g transform="matrix(1,0,0,1,271.175,232.642)">
                        <path d="M0,-34.882L-54.138,-41.726L34.369,-31.813L25.878,-14.546L24.943,-12.646L20.361,-3.323L11.966,6.844L-43.517,-0.238L19.494,-6.824L-46.841,-14.463L18.48,-21.33L-56.417,-28.818L0,-34.882Z" style="fill:rgb(7,29,73);"/>
                    </g>
                    <g transform="matrix(1,0,0,1,306.132,173.722)">
                        <path d="M0,39.01L12.351,24.19L34.331,33.719L18.444,43.739L17.809,28.823L0,39.01ZM-17.208,59.659L-21.554,68.954L-8.398,60.667L-10.327,51.403L-17.208,59.659ZM-10.312,44.909L-11.26,46.935L-11.274,46.865L-10.379,44.947L-10.312,44.909ZM34.559,33.574L24.686,-29.944L14.392,-7.926L34.522,33.598L34.559,33.574Z" style="fill:rgb(148,168,204);"/>
                    </g>
                    <g transform="matrix(1,0,0,1,240.083,162.115)">
                        <path d="M0,-74.087L-20.349,-98.306L-13.428,-8.46L29.437,22.631L34.435,24.219L58.318,20.992L41.862,12.435L-8.544,-51.964L0,-74.087Z" style="fill:rgb(15,71,187);"/>
                    </g>
                    <g transform="matrix(1,0,0,1,315.127,107.788)">
                        <path d="M0,69.309L-74.938,-19.465L-83.588,2.363L-33.182,66.763L-16.726,75.319L-41.08,78.611L-9.071,88.774L-5.203,80.475L0,69.309Z" style="fill:rgb(9,11,140);"/>
                    </g>
                    <g transform="matrix(1,0,0,1,321.236,43.6211)">
                        <path d="M0,122L-61.096,-12.977L-82.052,45.742L-81.852,45.998L-6.181,134.977L-0.779,123.385L-0.712,123.522L0,122Z" style="fill:rgb(15,71,187);"/>
                    </g>
                    <g transform="matrix(1,0,0,1,364.894,148.428)">
                        <path d="M0,12.751L1.749,11.064L15.617,15.417L0,12.751ZM-13.342,25.628L-5.389,17.953L-2.811,22.338L17.149,15.898L20.885,17.071L8.292,4.749L14.961,-1.687L4.521,1.06L-9.721,-12.877L-35.722,-0.701L-14.32,6.018L-41.316,13.122L-13.342,25.628Z" style="fill:rgb(7,29,73);"/>
                    </g>
                </g>
                <g>
                    <path d="M332.558,230.993C331.904,230.993 331.303,230.859 330.754,230.591C330.205,230.324 329.732,229.925 329.333,229.395C328.934,228.865 328.625,228.204 328.406,227.412C328.186,226.62 328.076,225.71 328.076,224.683C328.076,223.661 328.183,222.771 328.395,222.011C328.608,221.252 328.918,220.591 329.326,220.028C329.725,219.482 330.197,219.066 330.744,218.779C331.29,218.492 331.902,218.349 332.578,218.349C332.914,218.349 333.229,218.379 333.522,218.439C333.816,218.499 334.088,218.575 334.339,218.668C334.554,218.75 334.774,218.852 335.001,218.975C335.227,219.098 335.45,219.234 335.669,219.381L335.669,221.34L335.562,221.34C335.445,221.208 335.295,221.05 335.112,220.864C334.928,220.679 334.704,220.495 334.44,220.315C334.184,220.146 333.907,220.007 333.606,219.897C333.306,219.788 332.959,219.733 332.565,219.733C332.139,219.733 331.736,219.84 331.355,220.053C330.975,220.266 330.641,220.58 330.354,220.995C330.072,221.411 329.852,221.932 329.696,222.561C329.539,223.189 329.46,223.896 329.46,224.683C329.46,225.519 329.543,226.239 329.709,226.842C329.875,227.446 330.101,227.955 330.388,228.37C330.666,228.775 330.993,229.079 331.369,229.284C331.745,229.489 332.144,229.591 332.565,229.591C332.95,229.591 333.306,229.534 333.633,229.419C333.96,229.305 334.251,229.16 334.507,228.985C334.753,228.816 334.966,228.642 335.145,228.465C335.324,228.287 335.465,228.136 335.569,228.01L335.669,228.01L335.669,229.944C335.45,230.069 335.243,230.19 335.048,230.304C334.853,230.419 334.617,230.531 334.339,230.64C334.048,230.755 333.778,230.843 333.529,230.903C333.281,230.963 332.957,230.993 332.558,230.993Z" style="fill:rgb(27,39,88);fill-rule:nonzero;stroke:rgb(27,39,88);stroke-width:0.5px;"/>
                    <path d="M340.071,230.985C338.875,230.985 337.946,230.573 337.286,229.751C336.625,228.929 336.295,227.761 336.295,226.248C336.295,224.757 336.615,223.57 337.255,222.688C337.896,221.805 338.734,221.364 339.769,221.364C340.234,221.364 340.647,221.446 341.005,221.61C341.363,221.774 341.677,222.031 341.946,222.38C342.214,222.73 342.42,223.157 342.564,223.663C342.707,224.168 342.779,224.787 342.779,225.519L342.779,226.355L337.578,226.355C337.578,227.42 337.797,228.234 338.236,228.797C338.676,229.359 339.282,229.641 340.057,229.641C340.335,229.641 340.607,229.602 340.874,229.526C341.14,229.449 341.381,229.351 341.596,229.231C341.825,229.105 342.017,228.984 342.174,228.866C342.331,228.749 342.461,228.638 342.564,228.534L342.638,228.534L342.638,230.214C342.49,230.285 342.306,230.374 342.087,230.481C341.867,230.587 341.67,230.67 341.495,230.731C341.249,230.812 341.026,230.875 340.827,230.919C340.628,230.963 340.376,230.985 340.071,230.985ZM341.549,225.175C341.54,224.759 341.5,224.402 341.428,224.101C341.357,223.801 341.254,223.547 341.119,223.339C340.971,223.11 340.782,222.935 340.551,222.815C340.321,222.694 340.035,222.634 339.695,222.634C339.359,222.634 339.073,222.696 338.838,222.819C338.603,222.942 338.389,223.12 338.196,223.355C338.008,223.596 337.865,223.862 337.766,224.154C337.668,224.447 337.605,224.787 337.578,225.175L341.549,225.175Z" style="fill:rgb(27,39,88);fill-rule:nonzero;stroke:rgb(27,39,88);stroke-width:0.5px;"/>
                    <path d="M349.956,230.771L348.692,230.771L348.692,225.56C348.692,225.139 348.676,224.747 348.642,224.384C348.608,224.021 348.545,223.73 348.45,223.511C348.347,223.282 348.204,223.111 348.02,222.999C347.837,222.887 347.586,222.831 347.268,222.831C346.954,222.831 346.631,222.933 346.297,223.138C345.963,223.343 345.637,223.609 345.319,223.937L345.319,230.771L344.056,230.771L344.056,221.618L345.319,221.618L345.319,222.634C345.695,222.225 346.067,221.91 346.435,221.692C346.802,221.473 347.189,221.364 347.597,221.364C348.336,221.364 348.914,221.66 349.331,222.253C349.747,222.846 349.956,223.705 349.956,224.83L349.956,230.771Z" style="fill:rgb(27,39,88);fill-rule:nonzero;stroke:rgb(27,39,88);stroke-width:0.5px;"/>
                    <path d="M354.001,230.952C353.311,230.952 352.774,230.713 352.388,230.235C352.003,229.757 351.811,229.001 351.811,227.969L351.811,222.897L350.957,222.897L350.957,221.618L351.811,221.618L351.811,218.988L353.074,218.988L353.074,221.618L355.399,221.618L355.399,222.897L353.074,222.897L353.074,227.248C353.074,227.712 353.081,228.07 353.094,228.321C353.107,228.573 353.159,228.808 353.249,229.026C353.325,229.217 353.448,229.361 353.618,229.456C353.788,229.552 354.019,229.6 354.31,229.6C354.516,229.6 354.716,229.563 354.908,229.489C355.101,229.415 355.24,229.354 355.325,229.305L355.399,229.305L355.399,230.69C355.161,230.771 354.921,230.836 354.676,230.882C354.432,230.929 354.207,230.952 354.001,230.952Z" style="fill:rgb(27,39,88);fill-rule:nonzero;stroke:rgb(27,39,88);stroke-width:0.5px;"/>
                    <path d="M360.311,223.273L360.244,223.273C360.15,223.241 360.05,223.22 359.945,223.212C359.84,223.204 359.713,223.2 359.565,223.2C359.225,223.2 358.887,223.29 358.551,223.47C358.215,223.65 357.897,223.918 357.596,224.273L357.596,230.771L356.333,230.771L356.333,221.618L357.596,221.618L357.596,222.978C358.058,222.481 358.46,222.13 358.803,221.925C359.145,221.721 359.478,221.618 359.8,221.618C359.93,221.618 360.028,221.622 360.093,221.63C360.158,221.639 360.23,221.651 360.311,221.667L360.311,223.273Z" style="fill:rgb(27,39,88);fill-rule:nonzero;stroke:rgb(27,39,88);stroke-width:0.5px;"/>
                    <path d="M367.386,226.199C367.386,227.74 367.081,228.929 366.472,229.768C365.863,230.606 365.052,231.026 364.039,231.026C362.996,231.026 362.175,230.593 361.577,229.727C360.979,228.861 360.68,227.685 360.68,226.199C360.68,224.669 360.988,223.481 361.604,222.634C362.22,221.788 363.031,221.364 364.039,221.364C365.052,221.364 365.863,221.786 366.472,222.63C367.081,223.474 367.386,224.664 367.386,226.199ZM366.082,226.199C366.082,225.013 365.905,224.133 365.551,223.556C365.197,222.98 364.693,222.692 364.039,222.692C363.381,222.692 362.874,222.98 362.517,223.556C362.161,224.133 361.983,225.013 361.983,226.199C361.983,227.346 362.161,228.216 362.517,228.809C362.874,229.402 363.381,229.698 364.039,229.698C364.689,229.698 365.192,229.407 365.548,228.825C365.904,228.243 366.082,227.368 366.082,226.199Z" style="fill:rgb(27,39,88);fill-rule:nonzero;stroke:rgb(27,39,88);stroke-width:0.5px;"/>
                    <path d="M378.763,230.771L377.499,230.771L377.499,229.837C377.302,230.039 377.132,230.206 376.989,230.337C376.845,230.468 376.677,230.588 376.485,230.698C376.305,230.802 376.12,230.882 375.927,230.939C375.734,230.997 375.51,231.026 375.255,231.026C374.847,231.026 374.47,230.922 374.123,230.714C373.776,230.507 373.481,230.203 373.239,229.805C372.993,229.4 372.802,228.902 372.668,228.309C372.534,227.716 372.466,227.035 372.466,226.264C372.466,225.461 372.552,224.766 372.722,224.179C372.892,223.592 373.127,223.08 373.427,222.642C373.701,222.244 374.031,221.931 374.418,221.704C374.806,221.477 375.212,221.364 375.638,221.364C376.014,221.364 376.341,221.415 376.619,221.516C376.897,221.617 377.19,221.774 377.499,221.987L377.499,218.021L378.763,218.021L378.763,230.771ZM377.499,228.543L377.499,223.265C377.186,223.08 376.905,222.951 376.656,222.88C376.407,222.809 376.137,222.774 375.846,222.774C375.197,222.774 374.688,223.07 374.321,223.663C373.954,224.255 373.77,225.112 373.77,226.232C373.77,227.308 373.911,228.131 374.193,228.702C374.476,229.273 374.928,229.559 375.551,229.559C375.882,229.559 376.216,229.467 376.552,229.284C376.888,229.101 377.204,228.854 377.499,228.543Z" style="fill:rgb(27,39,88);fill-rule:nonzero;stroke:rgb(27,39,88);stroke-width:0.5px;"/>
                    <path d="M383.85,230.985C382.654,230.985 381.725,230.573 381.064,229.751C380.404,228.929 380.073,227.761 380.073,226.248C380.073,224.757 380.394,223.57 381.034,222.688C381.675,221.805 382.512,221.364 383.547,221.364C384.013,221.364 384.425,221.446 384.784,221.61C385.142,221.774 385.456,222.031 385.724,222.38C385.993,222.73 386.199,223.157 386.343,223.663C386.486,224.168 386.558,224.787 386.558,225.519L386.558,226.355L381.357,226.355C381.357,227.42 381.576,228.234 382.015,228.797C382.454,229.359 383.061,229.641 383.836,229.641C384.114,229.641 384.386,229.602 384.653,229.526C384.919,229.449 385.16,229.351 385.375,229.231C385.603,229.105 385.796,228.984 385.953,228.866C386.11,228.749 386.239,228.638 386.343,228.534L386.416,228.534L386.416,230.214C386.269,230.285 386.085,230.374 385.865,230.481C385.646,230.587 385.449,230.67 385.274,230.731C385.028,230.812 384.805,230.875 384.606,230.919C384.406,230.963 384.154,230.985 383.85,230.985ZM385.328,225.175C385.319,224.759 385.279,224.402 385.207,224.101C385.135,223.801 385.032,223.547 384.898,223.339C384.75,223.11 384.561,222.935 384.33,222.815C384.099,222.694 383.814,222.634 383.473,222.634C383.137,222.634 382.852,222.696 382.617,222.819C382.381,222.942 382.167,223.12 381.975,223.355C381.787,223.596 381.643,223.862 381.545,224.154C381.446,224.447 381.384,224.787 381.357,225.175L385.328,225.175Z" style="fill:rgb(27,39,88);fill-rule:nonzero;stroke:rgb(27,39,88);stroke-width:0.5px;"/>
                    <path d="M328.647,250.914L328.647,238.712L334.903,238.712L334.903,240.155L329.978,240.155L329.978,243.498L334.567,243.498L334.567,244.94L329.978,244.94L329.978,249.472L334.903,249.472L334.903,250.914L328.647,250.914Z" style="fill:rgb(27,39,88);fill-rule:nonzero;stroke:rgb(27,39,88);stroke-width:0.5px;"/>
                    <path d="M342.166,250.914L340.903,250.914L340.903,245.702C340.903,245.282 340.886,244.89 340.853,244.526C340.819,244.163 340.755,243.872 340.661,243.654C340.558,243.424 340.415,243.253 340.231,243.141C340.047,243.029 339.796,242.973 339.478,242.973C339.165,242.973 338.841,243.076 338.507,243.281C338.174,243.486 337.848,243.752 337.53,244.08L337.53,250.914L336.267,250.914L336.267,241.761L337.53,241.761L337.53,242.777C337.906,242.367 338.278,242.053 338.645,241.834C339.013,241.616 339.4,241.507 339.808,241.507C340.547,241.507 341.125,241.803 341.541,242.396C341.958,242.988 342.166,243.848 342.166,244.973L342.166,250.914Z" style="fill:rgb(27,39,88);fill-rule:nonzero;stroke:rgb(27,39,88);stroke-width:0.5px;"/>
                    <rect x="343.966" y="238.163" width="1.263" height="12.751" style="fill:rgb(27,39,88);fill-rule:nonzero;stroke:rgb(27,39,88);stroke-width:0.5px;"/>
                    <path d="M351.276,248.66L351.276,246.12C350.976,246.153 350.596,246.198 350.137,246.255C349.678,246.313 349.307,246.393 349.025,246.497C348.689,246.623 348.411,246.815 348.192,247.075C347.972,247.334 347.863,247.696 347.863,248.161C347.863,248.685 347.984,249.081 348.226,249.349C348.467,249.617 348.821,249.75 349.287,249.75C349.686,249.75 350.047,249.645 350.369,249.435C350.692,249.225 350.994,248.966 351.276,248.66ZM351.276,249.939C351.173,250.032 351.035,250.161 350.863,250.328C350.69,250.495 350.524,250.627 350.362,250.726C350.138,250.868 349.922,250.977 349.714,251.053C349.506,251.13 349.213,251.168 348.837,251.168C348.528,251.168 348.235,251.097 347.957,250.955C347.679,250.813 347.435,250.614 347.224,250.357C347.023,250.105 346.861,249.795 346.741,249.427C346.62,249.058 346.559,248.669 346.559,248.259C346.559,247.625 346.669,247.086 346.888,246.641C347.108,246.195 347.455,245.842 347.93,245.579C348.351,245.344 348.848,245.182 349.422,245.092C349.995,245.002 350.613,244.935 351.276,244.891L351.276,244.596C351.276,244.235 351.231,243.945 351.142,243.723C351.052,243.502 350.927,243.331 350.766,243.211C350.604,243.085 350.407,243.002 350.174,242.961C349.941,242.92 349.702,242.9 349.455,242.9C349.164,242.9 348.821,242.953 348.427,243.059C348.033,243.166 347.639,243.32 347.245,243.522L347.171,243.522L347.171,241.957C347.404,241.875 347.737,241.785 348.172,241.687C348.606,241.589 349.036,241.539 349.462,241.539C349.977,241.539 350.412,241.589 350.766,241.687C351.119,241.785 351.437,241.963 351.72,242.22C351.993,242.471 352.197,242.796 352.331,243.195C352.466,243.594 352.533,244.08 352.533,244.653L352.533,250.914L351.276,250.914L351.276,249.939Z" style="fill:rgb(27,39,88);fill-rule:nonzero;stroke:rgb(27,39,88);stroke-width:0.5px;"/>
                    <path d="M357.289,251.119C356.774,251.119 356.302,251.022 355.871,250.828C355.441,250.634 355.072,250.34 354.763,249.947C354.454,249.554 354.214,249.058 354.044,248.46C353.874,247.862 353.788,247.158 353.788,246.35C353.788,245.547 353.877,244.853 354.054,244.268C354.231,243.684 354.467,243.192 354.763,242.793C355.058,242.394 355.427,242.087 355.868,241.871C356.309,241.655 356.783,241.548 357.289,241.548C357.701,241.548 358.099,241.619 358.482,241.761C358.865,241.903 359.207,242.067 359.507,242.252L359.507,243.981L359.433,243.981C359.343,243.889 359.228,243.782 359.087,243.662C358.946,243.542 358.774,243.419 358.573,243.293C358.398,243.184 358.192,243.088 357.955,243.006C357.717,242.924 357.489,242.883 357.269,242.883C356.615,242.883 356.09,243.185 355.693,243.789C355.297,244.392 355.099,245.246 355.099,246.35C355.099,247.431 355.29,248.274 355.673,248.878C356.056,249.481 356.588,249.783 357.269,249.783C357.681,249.783 358.073,249.679 358.445,249.472C358.817,249.264 359.146,248.996 359.433,248.669L359.507,248.669L359.507,250.398C359.381,250.469 359.225,250.555 359.036,250.656C358.848,250.757 358.678,250.832 358.526,250.881C358.311,250.958 358.118,251.016 357.948,251.057C357.778,251.098 357.558,251.119 357.289,251.119Z" style="fill:rgb(27,39,88);fill-rule:nonzero;stroke:rgb(27,39,88);stroke-width:0.5px;"/>
                    <path d="M363.914,251.127C362.718,251.127 361.789,250.716 361.129,249.894C360.468,249.072 360.138,247.904 360.138,246.391C360.138,244.899 360.458,243.712 361.098,242.83C361.739,241.948 362.577,241.507 363.612,241.507C364.077,241.507 364.49,241.589 364.848,241.752C365.206,241.916 365.52,242.173 365.789,242.523C366.057,242.872 366.263,243.3 366.407,243.805C366.55,244.311 366.622,244.929 366.622,245.661L366.622,246.497L361.421,246.497C361.421,247.562 361.64,248.376 362.079,248.939C362.518,249.502 363.125,249.783 363.9,249.783C364.178,249.783 364.45,249.745 364.717,249.668C364.983,249.592 365.224,249.494 365.439,249.373C365.668,249.248 365.86,249.126 366.017,249.009C366.174,248.891 366.304,248.781 366.407,248.677L366.481,248.677L366.481,250.357C366.333,250.428 366.149,250.517 365.93,250.623C365.71,250.73 365.513,250.813 365.338,250.873C365.092,250.955 364.869,251.018 364.67,251.062C364.47,251.105 364.219,251.127 363.914,251.127ZM365.392,245.317C365.383,244.902 365.343,244.544 365.271,244.244C365.2,243.943 365.097,243.689 364.962,243.482C364.814,243.252 364.625,243.077 364.394,242.957C364.164,242.837 363.878,242.777 363.538,242.777C363.202,242.777 362.916,242.838 362.681,242.961C362.446,243.084 362.232,243.263 362.039,243.498C361.851,243.738 361.708,244.005 361.609,244.297C361.511,244.589 361.448,244.929 361.421,245.317L365.392,245.317Z" style="fill:rgb(27,39,88);fill-rule:nonzero;stroke:rgb(27,39,88);stroke-width:0.5px;"/>
                    <path d="M375.792,251.168C375.205,251.168 374.693,251.074 374.254,250.885C373.815,250.697 373.44,250.417 373.131,250.045C372.782,249.619 372.536,249.11 372.392,248.517C372.249,247.924 372.177,247.194 372.177,246.325L372.177,238.712L373.508,238.712L373.508,246.325C373.508,246.888 373.537,247.362 373.595,247.747C373.653,248.132 373.767,248.477 373.938,248.783C374.117,249.111 374.36,249.36 374.667,249.529C374.974,249.698 375.349,249.783 375.792,249.783C376.209,249.783 376.578,249.698 376.901,249.529C377.224,249.36 377.474,249.111 377.654,248.783C377.819,248.472 377.932,248.128 377.993,247.751C378.053,247.374 378.084,246.912 378.084,246.366L378.084,238.712L379.414,238.712L379.414,246.325C379.414,247.172 379.344,247.898 379.202,248.505C379.061,249.111 378.814,249.625 378.46,250.045C378.142,250.422 377.771,250.704 377.348,250.889C376.925,251.075 376.406,251.168 375.792,251.168Z" style="fill:rgb(27,39,88);fill-rule:nonzero;stroke:rgb(27,39,88);stroke-width:0.5px;"/>
                    <path d="M387.121,250.914L385.857,250.914L385.857,245.702C385.857,245.282 385.84,244.89 385.807,244.526C385.773,244.163 385.709,243.872 385.615,243.654C385.512,243.424 385.369,243.253 385.185,243.141C385.002,243.029 384.751,242.973 384.433,242.973C384.119,242.973 383.795,243.076 383.462,243.281C383.128,243.486 382.802,243.752 382.484,244.08L382.484,250.914L381.221,250.914L381.221,241.761L382.484,241.761L382.484,242.777C382.86,242.367 383.232,242.053 383.6,241.834C383.967,241.616 384.354,241.507 384.762,241.507C385.501,241.507 386.079,241.803 386.496,242.396C386.912,242.988 387.121,243.848 387.121,244.973L387.121,250.914Z" style="fill:rgb(27,39,88);fill-rule:nonzero;stroke:rgb(27,39,88);stroke-width:0.5px;"/>
                    <path d="M390.184,250.914L388.921,250.914L388.921,241.761L390.184,241.761L390.184,250.914ZM390.271,240.228L388.833,240.228L388.833,238.63L390.271,238.63L390.271,240.228Z" style="fill:rgb(27,39,88);fill-rule:nonzero;stroke:rgb(27,39,88);stroke-width:0.5px;"/>
                    <path d="M397.937,241.761L395.108,250.914L393.973,250.914L391.164,241.761L392.528,241.761L394.584,248.824L396.62,241.761L397.937,241.761Z" style="fill:rgb(27,39,88);fill-rule:nonzero;stroke:rgb(27,39,88);stroke-width:0.5px;"/>
                    <g transform="matrix(0.24,0,0,0.24,40.8814,6.6441)">
                        <path d="M1504.74,1018.68C1499.75,1018.68 1495.88,1016.97 1493.13,1013.54C1490.38,1010.12 1489,1005.25 1489,998.944C1489,992.729 1490.34,987.784 1493.01,984.108C1495.67,980.432 1499.17,978.594 1503.48,978.594C1505.42,978.594 1507.14,978.935 1508.63,979.618C1510.12,980.301 1511.43,981.371 1512.55,982.828C1513.67,984.285 1514.53,986.066 1515.12,988.171C1515.72,990.277 1516.02,992.855 1516.02,995.905L1516.02,999.388L1494.35,999.388C1494.35,1003.83 1495.27,1007.22 1497.09,1009.56C1498.92,1011.91 1501.45,1013.08 1504.68,1013.08C1505.84,1013.08 1506.97,1012.92 1508.08,1012.6C1509.19,1012.28 1510.2,1011.87 1511.09,1011.37C1512.05,1010.85 1512.85,1010.34 1513.5,1009.85C1514.15,1009.36 1514.69,1008.9 1515.12,1008.47L1515.43,1008.47L1515.43,1015.47C1514.82,1015.76 1514.05,1016.13 1513.14,1016.58C1512.22,1017.02 1511.4,1017.37 1510.67,1017.62C1509.65,1017.96 1508.72,1018.22 1507.89,1018.41C1507.06,1018.59 1506.01,1018.68 1504.74,1018.68ZM1510.9,994.471C1510.86,992.741 1510.69,991.25 1510.39,989.998C1510.09,988.746 1509.66,987.688 1509.11,986.823C1508.49,985.867 1507.7,985.138 1506.74,984.637C1505.78,984.137 1504.59,983.886 1503.17,983.886C1501.77,983.886 1500.58,984.142 1499.6,984.654C1498.62,985.167 1497.73,985.912 1496.93,986.891C1496.14,987.892 1495.55,989.002 1495.13,990.22C1494.72,991.438 1494.46,992.855 1494.35,994.471L1510.9,994.471Z" style="fill:rgb(27,39,88);fill-rule:nonzero;stroke:rgb(27,39,88);stroke-width:2.08px;"/>
                    </g>
                    <path d="M409.98,243.416L409.913,243.416C409.819,243.383 409.719,243.363 409.614,243.354C409.509,243.346 409.382,243.342 409.234,243.342C408.894,243.342 408.556,243.432 408.22,243.613C407.884,243.793 407.566,244.061 407.266,244.416L407.266,250.914L406.002,250.914L406.002,241.761L407.266,241.761L407.266,243.121C407.727,242.624 408.129,242.273 408.472,242.068C408.814,241.863 409.147,241.761 409.47,241.761C409.599,241.761 409.697,241.765 409.762,241.773C409.827,241.781 409.9,241.793 409.98,241.81L409.98,243.416Z" style="fill:rgb(27,39,88);fill-rule:nonzero;stroke:rgb(27,39,88);stroke-width:0.5px;"/>
                    <path d="M412.99,251.135C412.488,251.135 412.019,251.053 411.582,250.889C411.145,250.726 410.783,250.551 410.497,250.365L410.497,248.636L410.564,248.636C410.671,248.74 410.798,248.854 410.944,248.98C411.089,249.106 411.283,249.237 411.525,249.373C411.74,249.494 411.976,249.6 412.234,249.693C412.491,249.786 412.759,249.832 413.037,249.832C413.238,249.832 413.453,249.804 413.682,249.746C413.91,249.689 414.08,249.617 414.192,249.529C414.349,249.403 414.462,249.27 414.532,249.128C414.601,248.986 414.636,248.772 414.636,248.488C414.636,248.122 414.554,247.846 414.391,247.661C414.227,247.475 413.937,247.319 413.521,247.194C413.359,247.144 413.149,247.087 412.889,247.022C412.629,246.956 412.389,246.885 412.17,246.809C411.597,246.606 411.18,246.294 410.92,245.87C410.66,245.447 410.53,244.935 410.53,244.334C410.53,243.509 410.786,242.837 411.296,242.318C411.807,241.799 412.486,241.539 413.332,241.539C413.749,241.539 414.168,241.602 414.589,241.728C415.01,241.854 415.364,242.012 415.651,242.203L415.651,243.85L415.583,243.85C415.261,243.539 414.901,243.293 414.505,243.113C414.108,242.932 413.709,242.842 413.306,242.842C412.889,242.842 412.537,242.949 412.251,243.162C411.964,243.375 411.821,243.697 411.821,244.129C411.821,244.511 411.906,244.797 412.076,244.985C412.246,245.174 412.519,245.328 412.896,245.448C413.084,245.508 413.293,245.567 413.524,245.624C413.755,245.682 413.998,245.749 414.253,245.825C414.808,245.995 415.226,246.276 415.506,246.669C415.786,247.063 415.926,247.598 415.926,248.275C415.926,248.669 415.862,249.042 415.735,249.394C415.607,249.746 415.42,250.048 415.174,250.299C414.905,250.573 414.601,250.78 414.263,250.922C413.925,251.064 413.5,251.135 412.99,251.135Z" style="fill:rgb(27,39,88);fill-rule:nonzero;stroke:rgb(27,39,88);stroke-width:0.5px;"/>
                    <path d="M418.391,250.914L417.128,250.914L417.128,241.761L418.391,241.761L418.391,250.914ZM418.479,240.228L417.041,240.228L417.041,238.63L418.479,238.63L418.479,240.228Z" style="fill:rgb(27,39,88);fill-rule:nonzero;stroke:rgb(27,39,88);stroke-width:0.5px;"/>
                    <path d="M422.549,251.094C421.859,251.094 421.322,250.855 420.936,250.377C420.551,249.899 420.359,249.144 420.359,248.111L420.359,243.039L419.505,243.039L419.505,241.761L420.359,241.761L420.359,239.13L421.622,239.13L421.622,241.761L423.947,241.761L423.947,243.039L421.622,243.039L421.622,247.39C421.622,247.855 421.628,248.213 421.642,248.464C421.655,248.715 421.707,248.95 421.796,249.169C421.873,249.36 421.996,249.503 422.166,249.599C422.336,249.694 422.567,249.742 422.858,249.742C423.064,249.742 423.264,249.705 423.456,249.632C423.649,249.558 423.788,249.496 423.873,249.447L423.947,249.447L423.947,250.832C423.709,250.914 423.469,250.978 423.224,251.025C422.98,251.071 422.755,251.094 422.549,251.094Z" style="fill:rgb(27,39,88);fill-rule:nonzero;stroke:rgb(27,39,88);stroke-width:0.5px;"/>
                    <g transform="matrix(0.24,0,0,0.24,40.8814,6.6441)">
                        <path d="M1617.46,1013.73C1617.04,1014.12 1616.46,1014.66 1615.74,1015.35C1615.02,1016.04 1614.33,1016.6 1613.66,1017.01C1612.72,1017.6 1611.82,1018.05 1610.95,1018.37C1610.09,1018.69 1608.87,1018.85 1607.3,1018.85C1606.01,1018.85 1604.79,1018.55 1603.63,1017.96C1602.48,1017.37 1601.46,1016.54 1600.58,1015.47C1599.74,1014.42 1599.07,1013.13 1598.57,1011.59C1598.06,1010.06 1597.81,1008.44 1597.81,1006.73C1597.81,1004.09 1598.27,1001.84 1599.18,999.985C1600.1,998.13 1601.54,996.656 1603.52,995.563C1605.28,994.585 1607.35,993.907 1609.74,993.532C1612.13,993.156 1614.7,992.877 1617.46,992.695L1617.46,991.466C1617.46,989.964 1617.28,988.752 1616.9,987.83C1616.53,986.908 1616.01,986.197 1615.34,985.696C1614.66,985.172 1613.84,984.825 1612.87,984.654C1611.9,984.484 1610.9,984.398 1609.88,984.398C1608.66,984.398 1607.24,984.62 1605.59,985.064C1603.95,985.508 1602.31,986.151 1600.66,986.993L1600.36,986.993L1600.36,980.472C1601.33,980.13 1602.72,979.755 1604.53,979.345C1606.34,978.935 1608.13,978.73 1609.9,978.73C1612.05,978.73 1613.86,978.935 1615.34,979.345C1616.81,979.755 1618.14,980.495 1619.31,981.564C1620.45,982.611 1621.3,983.966 1621.86,985.628C1622.42,987.289 1622.7,989.315 1622.7,991.705L1622.7,1017.79L1617.46,1017.79L1617.46,1013.73ZM1617.46,1008.4L1617.46,997.817C1616.21,997.954 1614.63,998.141 1612.72,998.38C1610.81,998.619 1609.26,998.955 1608.09,999.388C1606.68,999.911 1605.53,1000.71 1604.61,1001.8C1603.7,1002.88 1603.24,1004.38 1603.24,1006.32C1603.24,1008.5 1603.75,1010.15 1604.75,1011.27C1605.76,1012.38 1607.24,1012.94 1609.18,1012.94C1610.84,1012.94 1612.34,1012.5 1613.68,1011.63C1615.03,1010.75 1616.29,1009.68 1617.46,1008.4Z" style="fill:rgb(27,39,88);fill-rule:nonzero;stroke:rgb(27,39,88);stroke-width:2.08px;"/>
                    </g>
                    <g transform="matrix(0.24,0,0,0.24,40.8814,6.6441)">
                        <path d="M1646.66,986.549L1646.38,986.549C1645.99,986.413 1645.58,986.327 1645.14,986.293C1644.7,986.259 1644.17,986.242 1643.56,986.242C1642.14,986.242 1640.73,986.618 1639.33,987.369C1637.93,988.12 1636.6,989.235 1635.35,990.715L1635.35,1017.79L1630.09,1017.79L1630.09,979.652L1635.35,979.652L1635.35,985.32C1637.27,983.249 1638.95,981.786 1640.38,980.933C1641.81,980.079 1643.19,979.652 1644.54,979.652C1645.08,979.652 1645.48,979.669 1645.75,979.704C1646.02,979.738 1646.33,979.789 1646.66,979.857L1646.66,986.549Z" style="fill:rgb(27,39,88);fill-rule:nonzero;stroke:rgb(27,39,88);stroke-width:2.08px;"/>
                    </g>
                    <g transform="matrix(0.24,0,0,0.24,40.8814,6.6441)">
                        <path d="M1656.12,1017.79L1650.86,1017.79L1650.86,979.652L1656.12,979.652L1656.12,1017.79ZM1656.49,973.267L1650.5,973.267L1650.5,966.609L1656.49,966.609L1656.49,973.267Z" style="fill:rgb(27,39,88);fill-rule:nonzero;stroke:rgb(27,39,88);stroke-width:2.08px;"/>
                    </g>
                    <g transform="matrix(0.24,0,0,0.24,40.8814,6.6441)">
                        <path d="M1689.58,998.739C1689.58,1005.16 1688.31,1010.12 1685.77,1013.61C1683.23,1017.1 1679.85,1018.85 1675.63,1018.85C1671.28,1018.85 1667.86,1017.05 1665.37,1013.44C1662.88,1009.83 1661.63,1004.93 1661.63,998.739C1661.63,992.365 1662.92,987.414 1665.48,983.886C1668.05,980.358 1671.43,978.594 1675.63,978.594C1679.85,978.594 1683.23,980.352 1685.77,983.869C1688.31,987.386 1689.58,992.343 1689.58,998.739ZM1684.14,998.739C1684.14,993.799 1683.41,990.129 1681.93,987.727C1680.46,985.326 1678.36,984.125 1675.63,984.125C1672.89,984.125 1670.78,985.326 1669.29,987.727C1667.81,990.129 1667.07,993.799 1667.07,998.739C1667.07,1003.52 1667.81,1007.14 1669.29,1009.61C1670.78,1012.08 1672.89,1013.32 1675.63,1013.32C1678.34,1013.32 1680.43,1012.11 1681.92,1009.68C1683.4,1007.26 1684.14,1003.61 1684.14,998.739Z" style="fill:rgb(27,39,88);fill-rule:nonzero;stroke:rgb(27,39,88);stroke-width:2.08px;"/>
                    </g>
                    <path d="M334.446,271.056L328.647,271.056L328.647,258.855L329.978,258.855L329.978,269.614L334.446,269.614L334.446,271.056Z" style="fill:rgb(27,39,88);fill-rule:nonzero;stroke:rgb(27,39,88);stroke-width:0.5px;"/>
                    <path d="M339.586,268.803L339.586,266.263C339.286,266.295 338.906,266.341 338.447,266.398C337.988,266.455 337.617,266.536 337.335,266.64C336.999,266.765 336.721,266.958 336.501,267.217C336.282,267.477 336.172,267.839 336.172,268.303C336.172,268.828 336.293,269.224 336.535,269.491C336.777,269.759 337.131,269.893 337.597,269.893C337.995,269.893 338.356,269.788 338.679,269.577C339.001,269.367 339.303,269.109 339.586,268.803ZM339.586,270.081C339.483,270.174 339.345,270.304 339.172,270.471C339,270.637 338.833,270.77 338.672,270.868C338.448,271.01 338.232,271.119 338.023,271.196C337.815,271.272 337.523,271.311 337.146,271.311C336.837,271.311 336.544,271.24 336.266,271.097C335.988,270.955 335.744,270.756 335.534,270.499C335.332,270.248 335.171,269.938 335.05,269.569C334.929,269.2 334.869,268.811 334.869,268.401C334.869,267.768 334.978,267.228 335.198,266.783C335.417,266.338 335.764,265.984 336.239,265.722C336.66,265.487 337.158,265.324 337.731,265.234C338.304,265.144 338.923,265.077 339.586,265.033L339.586,264.738C339.586,264.378 339.541,264.087 339.451,263.866C339.362,263.645 339.236,263.474 339.075,263.354C338.914,263.228 338.717,263.145 338.484,263.104C338.251,263.063 338.011,263.042 337.765,263.042C337.473,263.042 337.131,263.095 336.737,263.202C336.342,263.309 335.948,263.463 335.554,263.665L335.48,263.665L335.48,262.1C335.713,262.018 336.047,261.928 336.481,261.829C336.916,261.731 337.346,261.682 337.771,261.682C338.287,261.682 338.721,261.731 339.075,261.829C339.429,261.928 339.747,262.105 340.029,262.362C340.302,262.613 340.506,262.938 340.641,263.337C340.775,263.736 340.842,264.222 340.842,264.796L340.842,271.056L339.586,271.056L339.586,270.081Z" style="fill:rgb(27,39,88);fill-rule:nonzero;stroke:rgb(27,39,88);stroke-width:0.5px;"/>
                    <path d="M344.886,271.237C344.196,271.237 343.659,270.998 343.274,270.52C342.888,270.042 342.696,269.286 342.696,268.254L342.696,263.182L341.842,263.182L341.842,261.903L342.696,261.903L342.696,259.273L343.959,259.273L343.959,261.903L346.284,261.903L346.284,263.182L343.959,263.182L343.959,267.533C343.959,267.997 343.966,268.355 343.979,268.606C343.993,268.858 344.044,269.093 344.134,269.311C344.21,269.502 344.333,269.646 344.503,269.741C344.673,269.837 344.904,269.885 345.195,269.885C345.401,269.885 345.601,269.848 345.793,269.774C345.986,269.7 346.125,269.639 346.21,269.59L346.284,269.59L346.284,270.975C346.046,271.056 345.806,271.121 345.562,271.167C345.317,271.214 345.092,271.237 344.886,271.237Z" style="fill:rgb(27,39,88);fill-rule:nonzero;stroke:rgb(27,39,88);stroke-width:0.5px;"/>
                    <path d="M351.41,268.803L351.41,266.263C351.11,266.295 350.73,266.341 350.271,266.398C349.812,266.455 349.441,266.536 349.159,266.64C348.823,266.765 348.545,266.958 348.325,267.217C348.106,267.477 347.996,267.839 347.996,268.303C347.996,268.828 348.117,269.224 348.359,269.491C348.601,269.759 348.955,269.893 349.421,269.893C349.819,269.893 350.18,269.788 350.503,269.577C350.825,269.367 351.127,269.109 351.41,268.803ZM351.41,270.081C351.307,270.174 351.169,270.304 350.996,270.471C350.824,270.637 350.657,270.77 350.496,270.868C350.272,271.01 350.056,271.119 349.847,271.196C349.639,271.272 349.347,271.311 348.971,271.311C348.661,271.311 348.368,271.24 348.09,271.097C347.813,270.955 347.568,270.756 347.358,270.499C347.156,270.248 346.995,269.938 346.874,269.569C346.753,269.2 346.693,268.811 346.693,268.401C346.693,267.768 346.802,267.228 347.022,266.783C347.241,266.338 347.589,265.984 348.063,265.722C348.484,265.487 348.982,265.324 349.555,265.234C350.129,265.144 350.747,265.077 351.41,265.033L351.41,264.738C351.41,264.378 351.365,264.087 351.275,263.866C351.186,263.645 351.06,263.474 350.899,263.354C350.738,263.228 350.541,263.145 350.308,263.104C350.075,263.063 349.835,263.042 349.589,263.042C349.298,263.042 348.955,263.095 348.561,263.202C348.166,263.309 347.772,263.463 347.378,263.665L347.304,263.665L347.304,262.1C347.537,262.018 347.871,261.928 348.305,261.829C348.74,261.731 349.17,261.682 349.595,261.682C350.111,261.682 350.545,261.731 350.899,261.829C351.253,261.928 351.571,262.105 351.853,262.362C352.126,262.613 352.33,262.938 352.465,263.337C352.599,263.736 352.666,264.222 352.666,264.796L352.666,271.056L351.41,271.056L351.41,270.081Z" style="fill:rgb(27,39,88);fill-rule:nonzero;stroke:rgb(27,39,88);stroke-width:0.5px;"/>
                    <path d="M362.959,271.056L362.959,265.763C362.959,265.342 362.946,264.953 362.919,264.595C362.892,264.237 362.836,263.957 362.751,263.755C362.661,263.537 362.534,263.375 362.368,263.272C362.202,263.168 361.978,263.116 361.696,263.116C361.436,263.116 361.157,263.213 360.86,263.407C360.562,263.601 360.254,263.881 359.936,264.247C359.94,264.34 359.946,264.45 359.952,264.579C359.959,264.707 359.962,264.859 359.962,265.033L359.962,271.056L358.699,271.056L358.699,265.763C358.699,265.342 358.686,264.953 358.659,264.595C358.632,264.237 358.576,263.957 358.491,263.755C358.401,263.537 358.274,263.375 358.108,263.272C357.942,263.168 357.718,263.116 357.436,263.116C357.163,263.116 356.876,263.22 356.576,263.427C356.276,263.635 355.985,263.9 355.702,264.222L355.702,271.056L354.439,271.056L354.439,261.903L355.702,261.903L355.702,262.919C356.034,262.515 356.362,262.202 356.687,261.981C357.012,261.76 357.369,261.649 357.758,261.649C358.202,261.649 358.595,261.772 358.938,262.018C359.28,262.264 359.541,262.668 359.721,263.231C360.101,262.712 360.473,262.318 360.836,262.051C361.199,261.783 361.593,261.649 362.019,261.649C362.341,261.649 362.635,261.711 362.899,261.834C363.163,261.956 363.394,262.154 363.591,262.428C363.793,262.706 363.948,263.053 364.058,263.468C364.168,263.884 364.223,264.405 364.223,265.033L364.223,271.056L362.959,271.056Z" style="fill:rgb(27,39,88);fill-rule:nonzero;stroke:rgb(27,39,88);stroke-width:0.5px;"/>
                </g>
                <g>
                    <g transform="matrix(1,0,0,1,243.807,131.598)">
                        <path d="M0,9.129L12.084,13.247C11.273,17.068 9.994,20.259 8.249,22.821C6.503,25.384 4.337,27.317 1.75,28.621C-0.836,29.925 -4.129,30.577 -8.127,30.577C-12.977,30.577 -16.94,29.782 -20.014,28.193C-23.088,26.605 -25.742,23.81 -27.974,19.809C-30.207,15.808 -31.323,10.687 -31.323,4.444C-31.323,-3.877 -29.358,-10.273 -25.433,-14.743C-21.506,-19.212 -15.95,-21.448 -8.767,-21.448C-3.146,-21.448 1.273,-20.166 4.49,-17.603C7.706,-15.041 10.096,-11.106 11.658,-5.799L-0.517,-2.745C-0.943,-4.277 -1.391,-5.399 -1.857,-6.108C-2.628,-7.297 -3.572,-8.212 -4.688,-8.853C-5.804,-9.493 -7.052,-9.814 -8.432,-9.814C-11.557,-9.814 -13.952,-8.397 -15.616,-5.563C-16.875,-3.461 -17.503,-0.159 -17.503,4.342C-17.503,9.918 -16.752,13.739 -15.25,15.807C-13.749,17.875 -11.639,18.909 -8.919,18.909C-6.281,18.909 -4.287,18.074 -2.938,16.404C-1.588,14.734 -0.609,12.309 0,9.129Z" style="fill:rgb(7,29,73);fill-rule:nonzero;"/>
                    </g>
                    <g transform="matrix(1,0,0,1,243.807,131.598)">
                        <path d="M13.246,12.587L-0.766,7.812L-0.982,8.941C-1.554,11.924 -2.449,14.209 -3.716,15.775L-3.716,15.775C-4.886,17.224 -6.631,17.909 -8.919,17.909C-11.289,17.909 -13.133,17.021 -14.441,15.22L-14.441,15.219C-15.864,13.26 -16.503,9.625 -16.503,4.342C-16.503,0.078 -15.951,-3.058 -14.758,-5.049L-14.756,-5.053C-13.288,-7.553 -11.185,-8.814 -8.432,-8.814C-7.236,-8.814 -6.153,-8.54 -5.186,-7.986C-4.203,-7.421 -3.375,-6.611 -2.696,-5.564L-2.694,-5.561C-2.266,-4.91 -1.87,-3.878 -1.48,-2.477L-1.219,-1.538L12.911,-5.082L12.617,-6.081C10.987,-11.62 8.469,-15.712 5.113,-18.385C1.742,-21.071 -2.878,-22.448 -8.767,-22.448C-16.279,-22.448 -22.077,-20.077 -26.184,-15.403L-26.184,-15.403C-30.247,-10.776 -32.323,-4.169 -32.323,4.444C-32.323,10.887 -31.152,16.167 -28.847,20.296C-26.504,24.497 -23.7,27.414 -20.473,29.081C-17.279,30.732 -13.166,31.577 -8.127,31.577C-3.945,31.577 -0.505,30.878 2.2,29.514C4.936,28.135 7.229,26.094 9.075,23.384L9.075,23.384C10.886,20.726 12.221,17.419 13.062,13.455L13.246,12.587ZM0.745,10.439L10.912,13.904C10.128,17.202 8.969,19.988 7.423,22.258C5.777,24.674 3.738,26.499 1.3,27.728L1.3,27.728C-1.167,28.972 -4.313,29.577 -8.127,29.577C-12.788,29.577 -16.601,28.832 -19.555,27.305L-19.555,27.305C-22.476,25.796 -24.98,23.123 -27.101,19.322L-27.101,19.322C-29.262,15.449 -30.323,10.487 -30.323,4.444C-30.323,-3.585 -28.469,-9.77 -24.682,-14.083C-20.935,-18.347 -15.621,-20.448 -8.767,-20.448C-3.414,-20.448 0.803,-19.261 3.867,-16.821L3.867,-16.821C6.738,-14.533 8.9,-11.089 10.39,-6.512C10.39,-6.512 0.168,-3.948 0.168,-3.948C-0.213,-5.137 -0.615,-6.038 -1.02,-6.655C-1.882,-7.984 -2.942,-9.003 -4.19,-9.72L-4.19,-9.72C-5.455,-10.446 -6.868,-10.814 -8.432,-10.814C-11.928,-10.814 -14.614,-9.242 -16.476,-6.073C-17.8,-3.86 -18.503,-0.393 -18.503,4.342C-18.503,10.211 -17.64,14.218 -16.059,16.395C-14.365,18.729 -11.989,19.909 -8.919,19.909C-5.931,19.909 -3.688,18.924 -2.16,17.032C-0.89,15.461 0.089,13.268 0.745,10.439L0.745,10.439Z" style="fill:rgb(247,249,250);"/>
                    </g>
                    <g transform="matrix(1,0,0,1,266.222,149.555)">
                        <path d="M0,-5.532C-0.171,-7.846 -0.622,-9.504 -1.356,-10.505C-2.089,-11.505 -3.053,-12.005 -4.25,-12.005C-5.631,-12.005 -6.734,-11.25 -7.56,-9.74C-8.087,-8.798 -8.421,-7.396 -8.563,-5.532L0,-5.532ZM8.842,0.206L-8.584,0.206C-8.428,2.128 -8.05,3.56 -7.453,4.501C-6.613,5.855 -5.516,6.532 -4.164,6.532C-3.31,6.532 -2.499,6.238 -1.729,5.649C-1.26,5.277 -0.754,4.619 -0.214,3.677L8.35,4.766C7.041,7.905 5.46,10.156 3.609,11.519C1.759,12.882 -0.896,13.564 -4.356,13.564C-7.36,13.564 -9.723,12.98 -11.446,11.813C-13.168,10.646 -14.596,8.793 -15.728,6.252C-16.859,3.712 -17.426,0.725 -17.426,-2.707C-17.426,-7.592 -16.291,-11.544 -14.019,-14.565C-11.749,-17.586 -8.613,-19.096 -4.612,-19.096C-1.367,-19.096 1.196,-18.42 3.075,-17.067C4.955,-15.713 6.386,-13.751 7.368,-11.181C8.35,-8.611 8.842,-5.267 8.842,-1.148L8.842,0.206Z" style="fill:rgb(7,29,73);fill-rule:nonzero;"/>
                    </g>
                    <g transform="matrix(1,0,0,1,266.222,149.555)">
                        <path d="M8.842,1.206L9.842,1.206L9.842,-1.148C9.842,-5.414 9.319,-8.876 8.302,-11.538C7.243,-14.31 5.687,-16.418 3.659,-17.878L3.659,-17.878C1.635,-19.336 -1.117,-20.096 -4.612,-20.096C-8.955,-20.096 -12.354,-18.445 -14.818,-15.166C-17.207,-11.99 -18.426,-7.843 -18.426,-2.707C-18.426,0.881 -17.824,4.003 -16.642,6.659L-16.641,6.659C-15.421,9.399 -13.864,11.383 -12.007,12.641L-12.007,12.641C-10.146,13.902 -7.601,14.564 -4.356,14.564C-0.634,14.564 2.212,13.79 4.202,12.324C6.173,10.873 7.879,8.493 9.273,5.151L9.778,3.94L-0.75,2.601L-1.082,3.18C-1.535,3.971 -1.944,4.539 -2.339,4.856C-2.921,5.3 -3.524,5.532 -4.164,5.532C-5.176,5.532 -5.974,4.988 -6.603,3.974L-6.606,3.97C-7.023,3.313 -7.3,2.39 -7.469,1.206C-7.469,1.206 8.842,1.206 8.842,1.206ZM7.842,-0.794L-9.668,-0.794L-9.581,0.287C-9.408,2.413 -8.96,3.99 -8.3,5.032C-7.249,6.724 -5.854,7.532 -4.164,7.532C-3.099,7.532 -2.082,7.178 -1.121,6.443L-1.114,6.438C-0.669,6.085 -0.192,5.528 0.305,4.751C0.305,4.751 6.889,5.588 6.889,5.588C5.782,7.905 4.5,9.621 3.016,10.714L3.016,10.714C1.306,11.974 -1.158,12.564 -4.356,12.564C-7.119,12.564 -9.3,12.058 -10.885,10.985C-12.472,9.909 -13.771,8.187 -14.815,5.845C-15.894,3.421 -16.426,0.568 -16.426,-2.707C-16.426,-7.341 -15.375,-11.098 -13.22,-13.964L-13.22,-13.964C-11.144,-16.727 -8.271,-18.096 -4.612,-18.096C-1.617,-18.096 0.757,-17.504 2.491,-16.256C4.223,-15.008 5.529,-13.192 6.434,-10.824C7.381,-8.346 7.842,-5.12 7.842,-1.148L7.842,-0.794ZM-9.642,-4.532L1.077,-4.532L0.997,-5.606C0.808,-8.166 0.263,-9.988 -0.55,-11.096C-1.486,-12.374 -2.721,-13.005 -4.25,-13.005C-5.98,-13.005 -7.399,-12.115 -8.435,-10.224C-9.013,-9.189 -9.404,-7.655 -9.56,-5.608L-9.642,-4.532ZM-1.102,-6.532L-7.456,-6.532C-7.303,-7.687 -7.055,-8.595 -6.687,-9.252L-6.685,-9.256C-6.066,-10.387 -5.281,-11.005 -4.25,-11.005C-3.385,-11.005 -2.692,-10.636 -2.163,-9.914L-2.162,-9.914C-1.626,-9.182 -1.29,-8.051 -1.102,-6.532L-1.102,-6.532Z" style="fill:rgb(247,249,250);"/>
                    </g>
                    <g transform="matrix(1,0,0,1,0,-549.847)">
                        <rect x="296.222" y="651.268" width="10.66" height="39.311" style="fill:rgb(7,29,73);"/>
                    </g>
                    <g transform="matrix(1,0,0,1,0,-549.847)">
                        <path d="M307.882,691.579L307.882,650.268L295.222,650.268L295.222,691.579L307.882,691.579ZM305.882,652.268L305.882,689.579C305.882,689.579 297.222,689.579 297.222,689.579C297.222,689.579 297.222,658.3 297.222,652.268L305.882,652.268Z" style="fill:rgb(247,249,250);"/>
                    </g>
                    <g transform="matrix(1,0,0,1,296.222,121.708)">
                        <path d="M0,27.318L-7.745,27.318L-7.745,22.791C-8.899,24.651 -10.065,25.976 -11.241,26.765C-12.416,27.555 -13.859,27.949 -15.571,27.949C-17.854,27.949 -19.646,27.068 -20.943,25.305C-22.24,23.541 -22.889,20.827 -22.889,17.159L-22.889,-0.631L-14.553,-0.631L-14.553,14.738C-14.553,16.493 -14.301,17.738 -13.798,18.475C-13.296,19.212 -12.59,19.581 -11.678,19.581C-10.688,19.581 -9.875,19.089 -9.243,18.107C-8.611,17.124 -8.295,15.361 -8.295,12.817L-8.295,-0.631L0,-0.631L0,27.318Z" style="fill:rgb(7,29,73);fill-rule:nonzero;"/>
                    </g>
                    <g transform="matrix(1,0,0,1,296.222,121.708)">
                        <path d="M-8.745,28.318L1,28.318L1,-1.631L-9.295,-1.631L-9.295,12.817C-9.295,15.096 -9.518,16.685 -10.084,17.566C-10.504,18.218 -11.021,18.581 -11.678,18.581C-12.233,18.581 -12.666,18.361 -12.972,17.912L-12.972,17.912C-13.398,17.288 -13.553,16.223 -13.553,14.738C-13.553,14.738 -13.553,-1.631 -13.553,-1.631L-23.889,-1.631L-23.889,17.159C-23.889,21.099 -23.142,24.002 -21.749,25.897L-21.749,25.897C-20.256,27.926 -18.198,28.949 -15.571,28.949C-13.637,28.949 -12.011,28.488 -10.683,27.595C-10.037,27.161 -9.389,26.581 -8.745,25.85C-8.745,25.85 -8.745,28.318 -8.745,28.318ZM-1,26.318L-6.745,26.318C-6.745,26.318 -6.745,19.282 -6.745,19.282L-8.595,22.264C-9.657,23.976 -10.716,25.208 -11.798,25.935L-11.799,25.935C-12.821,26.623 -14.081,26.949 -15.571,26.949C-17.51,26.949 -19.036,26.21 -20.137,24.713C-21.338,23.079 -21.889,20.555 -21.889,17.159L-21.889,0.369C-21.889,0.369 -15.553,0.369 -15.553,0.369C-15.553,0.369 -15.553,14.738 -15.553,14.738C-15.553,16.763 -15.205,18.188 -14.624,19.038C-13.926,20.063 -12.946,20.581 -11.678,20.581C-10.355,20.581 -9.247,19.96 -8.402,18.648L-8.402,18.648C-7.704,17.562 -7.295,15.626 -7.295,12.817C-7.295,12.817 -7.295,0.369 -7.295,0.369C-7.295,0.369 -1,0.369 -1,0.369L-1,26.318Z" style="fill:rgb(247,249,250);"/>
                    </g>
                </g>
            </g>
        </g>
    </g>
</svg>
