<svg width="400" height="400" viewBox="0 0 400 400" fill="none" xmlns="http://www.w3.org/2000/svg">
<g clip-path="url(#clip0)">
<path fill-rule="evenodd" clip-rule="evenodd" d="M178.276 313.763L85.3027 351.143L102.92 370.876L178.276 313.763Z" fill="#0F47BB"/>
<path fill-rule="evenodd" clip-rule="evenodd" d="M237.249 329.645L237.492 377.5L220.487 358.797L196.194 324.786L220.002 345.92L199.596 318.228L228.26 343.976L209.069 316.285L234.089 338.148L216.6 313.855L237.249 329.645Z" fill="#06224F"/>
<path fill-rule="evenodd" clip-rule="evenodd" d="M239.866 373.228L238.229 275.574L201.913 298.954L208.751 326.256L209.072 326.74L228.261 343.978L209.07 316.285L234.091 338.148L216.601 313.855L237.25 329.645L237.452 369.582L239.866 373.228Z" fill="#3160AD"/>
<path fill-rule="evenodd" clip-rule="evenodd" d="M204.471 324.848L220.003 345.925L212.548 339.307L205.317 328.392L204.471 324.848ZM235.763 328.512L235.037 277.71L198.721 300.727L203.794 322.003L228.261 343.981L209.07 316.29L234.09 338.151L216.601 313.86L235.763 328.512Z" fill="#0F47BB"/>
<path fill-rule="evenodd" clip-rule="evenodd" d="M180.292 311.792L103.528 370.093L107.9 375.437L180.292 311.792Z" fill="#06224F"/>
<path fill-rule="evenodd" clip-rule="evenodd" d="M182.47 310.583L118.825 399.978L90.1611 380.547L103.691 370.29L107.901 375.436L176.63 315.011L182.47 310.583Z" fill="#94A8CC"/>
<path fill-rule="evenodd" clip-rule="evenodd" d="M194.103 278.546L198.961 301.867L238.394 276.604L237.423 253.767L194.103 278.546Z" fill="#071D49"/>
<path fill-rule="evenodd" clip-rule="evenodd" d="M195.808 277.567L232.277 199.31L262.277 261.194L229.363 246.925L211.13 268.804L195.808 277.567ZM185.635 299.395L194.487 280.398L195.885 287.097L185.635 299.395Z" fill="#071D49"/>
<path fill-rule="evenodd" clip-rule="evenodd" d="M207.809 251.822L71.2128 239.402L160.608 227.743L220.646 224.274L214.528 237.397L207.809 251.822Z" fill="#0F47BB"/>
<path fill-rule="evenodd" clip-rule="evenodd" d="M159.527 246.7L79.6064 236.597L210.263 251.231L197.729 276.721L196.348 279.526L189.584 293.288L177.191 308.297L95.2855 297.843L188.304 288.12L90.3785 276.843L186.808 266.706L76.2421 255.652L159.527 246.7Z" fill="#071D49"/>
<path fill-rule="evenodd" clip-rule="evenodd" d="M211.131 268.803L229.364 246.925L261.811 260.992L238.359 275.784L237.421 253.764L211.131 268.803ZM185.728 299.285L179.312 313.007L198.733 300.774L195.886 287.098L185.728 299.285ZM195.908 277.511L194.508 280.502L194.488 280.399L195.809 277.567L195.908 277.511ZM262.148 260.778L247.573 167.01L232.377 199.514L262.093 260.813L262.148 260.778Z" fill="#94A8CC"/>
<path fill-rule="evenodd" clip-rule="evenodd" d="M113.628 84.7092L83.5876 48.9563L93.8047 181.59L157.083 227.488L164.462 229.832L199.719 225.068L175.426 212.436L101.015 117.368L113.628 84.7092Z" fill="#0F47BB"/>
<path fill-rule="evenodd" clip-rule="evenodd" d="M224.409 216.201L113.783 85.1501L101.013 117.373L175.424 212.443L199.717 225.074L163.765 229.933L211.018 244.936L216.728 232.685L224.409 216.201Z" fill="#090B8C"/>
<path fill-rule="evenodd" clip-rule="evenodd" d="M233.427 199.258L143.235 0L112.299 86.683L112.594 87.0609L224.302 218.415L232.277 201.302L232.375 201.504L233.427 199.258Z" fill="#0F47BB"/>
<path fill-rule="evenodd" clip-rule="evenodd" d="M297.876 192.697L300.458 190.207L320.93 196.633L297.876 192.697ZM278.18 211.707L289.92 200.377L293.726 206.85L323.192 197.343L328.707 199.075L310.117 180.885L319.962 171.384L304.55 175.439L283.525 154.865L245.142 172.839L276.736 182.758L236.884 193.245L278.18 211.707Z" fill="#071D49"/>
</g>
<defs>
<clipPath id="clip0">
<rect width="400" height="400" fill="white"/>
</clipPath>
</defs>
</svg>
